<?xml version="1.0" standalone="no"?>
<!DOCTYPE svg PUBLIC "-//W3C//DTD SVG 1.1//EN" "http://www.w3.org/Graphics/SVG/1.1/DTD/svg11.dtd" >
<svg xmlns="http://www.w3.org/2000/svg">
<metadata>Generated by IcoMoon</metadata>
<defs>
<font id="chords" horiz-adv-x="1024">
<font-face units-per-em="1024" ascent="960" descent="-64" />
<missing-glyph horiz-adv-x="1024" />
<glyph unicode="&#x20;" horiz-adv-x="512" d="" />
<glyph unicode="&#xe900;" glyph-name="A_7" horiz-adv-x="1137" d="M969.477 574.204h-45.639c39.264 110.401 87.603 221.376 141.74 320.666-14.873-1.106-137.491-1.106-185.255-1.106v38.777h230.938v-34.484c-55.776-102.476-106.196-218.234-141.786-323.852zM689.759-27.686l-73.616 211.063h-386.667l-73.66-211.063h-155.817l342.754 956.109h171.4l347.005-956.109h-171.4zM465.947 606.872c-18.37 49.578-31.119 94.906-42.451 147.318h-2.834c-9.915-48.162-25.497-100.574-43.912-151.568l-107.655-296.054h305.925l-109.072 300.303z" />
<glyph unicode="&#xe901;" glyph-name="A_maj" horiz-adv-x="870" d="M693.537-30.43l-74.040 212.28h-388.898l-74.085-212.28h-156.716l344.731 961.625h172.389l349.007-961.625h-172.389zM468.435 607.788c-18.476 49.864-31.299 95.454-42.696 148.168h-2.85c-9.972-48.44-25.644-101.154-44.165-152.443l-108.276-297.762h307.69l-109.701 302.036z" />
<glyph unicode="&#xe902;" glyph-name="A_maj7" horiz-adv-x="1849" d="M1211.229 607.797v154.793c0 36.14-8.667 59.772-43.468 59.772-36.543 0-71.791-38.062-71.791-100.247v-114.32h-35.693v155.329c0 32.746-6.701 59.236-43.423 59.236-39.491 0-71.835-41.457-71.835-100.247v-114.32h-36.096v239.673h35.649c0-15.457-0.938-38.151-3.841-53.071l0.938-0.536c13.491 35.248 44.896 58.433 84.432 58.433 54.501 0 66.073-39.089 67.009-57.406 8.667 22.649 34.712 57.406 83.405 57.406 44.852 0 70.897-24.079 70.897-78.134v-166.364h-36.185zM1439.779 607.797c0 18.317 0 36.632 2.413 50.66h-0.983c-11.525-30.422-42.396-54.993-83.36-54.993-38.106 0-65.581 20.236-65.581 58.389 0 50.169 52.044 84.834 145.59 84.834v19.745c0 36.231-12.999 56.423-54.501 56.423-23.141 0-52.088-7.192-73.31-20.728l-3.396 31.852c22.649 10.141 50.66 17.781 82.913 17.781 66.073 0 84.879-32.746 84.879-78.089v-93.993c0-23.632 0-50.66 0.938-71.835h-35.604zM1437.813 720.195c-90.196 0-109.45-28.501-109.45-51.643 0-21.622 15.457-35.649 39.089-35.649 42.396 0 70.361 41.904 70.361 83.36v3.932zM1494.235 484.32c-10.141 0-23.141 1.474-32.255 4.379l3.351 31.808c9.114-3.351 20.236-5.762 30.825-5.762 32.299 0 41.010 13.491 41.010 60.264v272.507h36.14v-270.096c0.045-63.66-18.717-93.099-79.072-93.099zM1555.035 890.847c-13.491 0-24.571 10.588-24.571 24.615 0 13.491 11.080 24.615 24.571 24.615 13.982 0 25.062-11.124 25.062-24.615-0.045-14.027-11.080-24.615-25.062-24.615zM1693.21 607.797h-41.457c35.649 100.247 79.563 201.030 128.705 291.27-13.446-0.938-124.862-0.938-168.239-0.938v35.157h209.741v-31.361c-50.569-93.099-96.406-198.127-128.749-294.13zM696.1-32.059l-74.292 213.003h-390.223l-74.337-213.003h-157.25l345.905 964.9h172.976l350.195-964.9h-172.976zM470.231 608.333c-18.539 50.033-31.405 95.779-42.841 148.672h-2.86c-10.006-48.605-25.732-101.499-44.316-152.962l-108.645-298.776h308.738l-110.075 303.064z" />
<glyph unicode="&#xe903;" glyph-name="A_min" horiz-adv-x="1582" d="M1451.898-22.932v264.849c0 57.301-13.271 93.787-67.245 93.787-58.943 0-115.447-62.229-115.447-161.874v-196.807h-73.902v265.737c0 51.488-10.785 92.988-67.245 92.988-63.117 0-115.403-67.245-115.403-161.874v-196.807h-74.745v412.698h72.215c0-24.101-1.686-61.473-6.658-86.374l1.686-0.844c24.057 58.145 77.23 95.473 143.631 95.473 87.174 0 110.431-60.587 113.761-93.787 17.443 39.014 61.429 93.787 141.147 93.787 78.030 0 122.904-42.344 122.904-135.332v-285.667h-74.7zM691.617-28.967l-73.814 211.631h-387.709l-73.858-211.631h-156.237l343.677 958.685h171.862l347.94-958.685h-171.862zM467.203 607.3c-18.42 49.711-31.203 95.162-42.565 147.715h-2.841c-9.942-48.292-25.566-100.845-44.030-151.977l-107.945-296.852h306.749l-109.366 301.112z" />
<glyph unicode="&#xe904;" glyph-name="A_min7" horiz-adv-x="1849" d="M1692.962 575.349h-46.053c39.62 111.402 88.398 223.385 143.026 323.575-15.008-1.116-138.739-1.116-186.936-1.116v39.129h233.034v-34.797c-56.282-103.406-107.159-220.214-143.072-326.791zM1461.134-25.928v266.534c0 57.666-13.356 94.384-67.672 94.384-59.318 0-116.181-62.625-116.181-162.904v-198.059h-74.373v267.428c0 51.815-10.854 93.579-67.672 93.579-63.518 0-116.137-67.672-116.137-162.904v-198.059h-75.22v415.324h72.674c0-24.254-1.697-61.864-6.7-86.924l1.697-0.849c24.21 58.515 77.722 96.081 144.545 96.081 87.728 0 111.133-60.972 114.484-94.384 17.554 39.262 61.82 94.384 142.045 94.384 78.527 0 123.686-42.613 123.686-136.193v-287.484h-75.176zM696.017-32.002l-74.284 212.978h-390.176l-74.328-212.978h-157.231l345.864 964.784h172.955l350.153-964.784h-172.955zM470.175 608.313c-18.537 50.027-31.401 95.767-42.836 148.654h-2.859c-10.005-48.599-25.729-101.486-44.31-152.944l-108.632-298.74h308.701l-110.062 303.028z" />
<glyph unicode="&#xe905;" glyph-name="A_sus4" horiz-adv-x="1760" d="M952.239 612.436c-17.746 0-36.070 2.007-50.518 4.815l0.981 33.217c15.382-4.37 34.598-7.713 53.415-7.713 34.598 0 58.675 15.382 58.675 40.44 0 57.741-116.46 21.58-116.46 106.829 0 39.95 32.683 70.269 93.409 70.269 14.892 0 31.701-2.408 46.682-5.261l-0.937-31.255c-15.873 5.261-33.173 8.248-49.492 8.248-35.18 0-52.522-14.49-52.522-38.077 0-57.294 116.951-24.567 116.951-105.894-0.044-42.314-37.542-75.618-100.186-75.618zM1244.505 616.805c0 15.427 1.383 38.478 3.834 52.969l-0.937 0.446c-13.465-34.598-43.828-58.185-85.651-58.185-54.842 0-71.696 34.598-71.696 77.001v166.978h36.070v-155.028c0-37.542 10.122-59.122 44.765-59.122 42.849 0 73.212 42.314 73.212 99.116v115.033h36.070v-239.209h-35.67zM1376.838 612.436c-17.791 0-36.115 2.007-50.518 4.815l0.937 33.217c15.427-4.37 34.645-7.713 53.459-7.713 34.645 0 58.675 15.382 58.675 40.44 0 57.741-116.416 21.58-116.416 106.829 0 39.95 32.683 70.269 93.365 70.269 14.892 0 31.79-2.408 46.682-5.261l-0.981-31.255c-15.873 5.261-33.173 8.248-49.581 8.248-35.089 0-52.434-14.49-52.434-38.077 0-57.294 116.906-24.567 116.906-105.894 0-42.314-37.542-75.618-100.097-75.618zM1692.735 695.768v-78.963h-35.58v78.963h-148.251l-2.854 28.446 138.129 217.538h48.6v-213.303h55.377v-32.683h-55.421zM1657.646 905.593h-0.491l-114.098-178.569c31.344 1.427 93.855 1.427 114.587 1.427v177.142zM694.751-31.128l-74.148 212.59h-389.466l-74.193-212.59h-156.945l345.235 963.029h172.64l349.516-963.029h-172.64zM469.32 608.022c-18.503 49.936-31.344 95.593-42.758 148.384h-2.854c-9.987-48.511-25.682-101.302-44.23-152.665l-108.434-298.197h308.139l-109.861 302.477z" />
<glyph unicode="&#xe906;" glyph-name="Ab_7" horiz-adv-x="1431" d="M1266.391 574.679h-45.811c39.412 110.817 87.933 222.211 142.274 321.874-14.929-1.111-138.009-1.111-185.953-1.111v38.923h231.809v-34.614c-55.987-102.862-106.596-219.056-142.32-325.073zM1136.504 207.697c0-30.206-14.076-60.166-42.229-89.933-13.587-14.076-44.331-39.639-92.278-76.639-42.229-33.382-72.485-61.779-90.715-85.193v643.606h36.755v-348.001c27.518 23.95 60.265 35.924 98.144 35.924 25.953 0 46.971-6.501 63.099-19.502 18.133-14.125 27.223-34.214 27.223-60.265zM1084.939 200.707c0 32.844-16.324 49.267-48.974 49.267-27.469 0-56.794-13.539-87.88-40.666v-172.828c26.98 21.408 52.103 44.282 75.416 68.817 40.909 42.229 61.437 73.999 61.437 95.407zM692.359-29.479l-73.893 211.858h-388.125l-73.937-211.858h-156.405l344.046 959.713h172.046l348.313-959.713h-172.046zM467.704 607.471c-18.44 49.765-31.236 95.264-42.611 147.873h-2.844c-9.952-48.344-25.593-100.953-44.077-152.14l-108.061-297.17h307.078l-109.483 301.435z" />
<glyph unicode="&#xe907;" glyph-name="Ab_maj" horiz-adv-x="1164" d="M1142.015 206.532c0-30.352-14.144-60.458-42.434-90.369-13.653-14.144-44.546-39.831-92.726-77.010-42.434-33.544-72.836-62.079-91.155-85.606v646.727h36.933v-349.688c27.652 24.066 60.557 36.098 98.62 36.098 26.079 0 47.199-6.533 63.405-19.597 18.221-14.194 27.355-34.38 27.355-60.557zM1090.2 199.508c0 33.003-16.403 49.506-49.212 49.506-27.602 0-57.069-13.605-88.307-40.863v-173.666c27.111 21.512 52.356 44.496 75.782 69.151 41.108 42.434 61.735 74.358 61.735 95.87zM695.716-31.794l-74.251 212.886h-390.007l-74.296-212.886h-157.163l345.714 964.367h172.88l350.002-964.367h-172.88zM469.972 608.244c-18.529 50.006-31.388 95.726-42.817 148.59h-2.858c-10-48.578-25.717-101.443-44.291-152.878l-108.585-298.611h308.567l-110.014 302.897z" />
<glyph unicode="&#xe908;" glyph-name="Ab_maj7" horiz-adv-x="2143" d="M1496.021 606.73v153.759c0 35.899-8.609 59.373-43.178 59.373-36.299 0-71.311-37.807-71.311-99.578v-113.557h-35.455v154.292c0 32.527-6.656 58.841-43.133 58.841-39.228 0-71.356-41.181-71.356-99.578v-113.557h-35.855v238.074h35.411c0-15.354-0.932-37.896-3.815-52.717l0.932-0.532c13.401 35.013 44.596 58.043 83.868 58.043 54.138 0 65.632-38.828 66.562-57.023 8.609 22.498 34.48 57.023 82.848 57.023 44.552 0 70.423-23.918 70.423-77.612v-165.253h-35.943zM1723.043 606.73c0 18.194 0 36.387 2.397 50.322h-0.976c-11.448-30.219-42.113-54.626-82.804-54.626-37.852 0-65.143 20.101-65.143 57.999 0 49.834 51.697 84.268 144.618 84.268v19.613c0 35.989-12.913 56.046-54.138 56.046-22.986 0-51.741-7.144-72.82-20.589l-3.373 31.639c22.498 10.074 50.322 17.662 82.36 17.662 65.632 0 84.312-32.527 84.312-77.568v-93.365c0-23.474 0-50.322 0.932-71.356h-35.366zM1721.092 718.378c-89.594 0-108.719-28.311-108.719-51.299 0-21.477 15.354-35.411 38.828-35.411 42.113 0 69.891 41.625 69.891 82.804v3.906zM1777.136 484.078c-10.074 0-22.986 1.465-32.039 4.35l3.329 31.595c9.053-3.329 20.101-5.724 30.619-5.724 32.083 0 40.737 13.401 40.737 59.862v270.688h35.899v-268.293c0.044-63.235-18.592-92.477-78.544-92.477zM1837.532 887.891c-13.401 0-24.407 10.518-24.407 24.451 0 13.401 11.006 24.451 24.407 24.451 13.889 0 24.895-11.050 24.895-24.451-0.044-13.933-11.006-24.451-24.895-24.451zM1974.784 606.73h-41.181c35.411 99.578 79.032 199.688 127.846 289.326-13.357-0.932-124.029-0.932-167.116-0.932v34.923h208.341v-31.151c-50.232-92.477-95.762-196.804-127.89-292.167zM1135.019 208.011c0-30.166-14.057-60.088-42.174-89.815-13.569-14.057-44.273-39.587-92.158-76.539-42.174-33.339-72.39-61.699-90.596-85.081v642.765h36.707v-347.546c27.482 23.918 60.186 35.877 98.016 35.877 25.919 0 46.91-6.493 63.017-19.477 18.109-14.107 27.188-34.169 27.188-60.186zM1083.522 201.030c0 32.801-16.303 49.203-48.91 49.203-27.433 0-56.72-13.522-87.766-40.613v-172.602c26.945 21.38 52.035 44.224 75.317 68.727 40.856 42.174 61.357 73.902 61.357 95.283zM691.454-28.855l-73.797 211.581h-387.618l-73.841-211.581h-156.2l343.596 958.459h171.821l347.858-958.459h-171.821zM467.093 607.262c-18.416 49.7-31.196 95.14-42.555 147.68h-2.841c-9.939-48.281-25.56-100.821-44.020-151.941l-107.92-296.782h306.677l-109.34 301.041z" />
<glyph unicode="&#xe909;" glyph-name="Ab_min" horiz-adv-x="1876" d="M1749.127-24.089v265.5c0 57.442-13.304 94.018-67.41 94.018-59.088 0-115.73-62.382-115.73-162.272v-197.29h-74.084v266.39c0 51.614-10.812 93.216-67.41 93.216-63.272 0-115.686-67.41-115.686-162.272v-197.29h-74.928v413.712h72.392c0-24.16-1.69-61.624-6.674-86.586l1.69-0.846c24.116 58.288 77.42 95.708 143.984 95.708 87.388 0 110.702-60.736 114.040-94.018 17.486 39.11 61.58 94.018 141.494 94.018 78.222 0 123.206-42.448 123.206-135.664v-286.368h-74.884zM1138.075 207.365c0-30.248-14.095-60.25-42.288-90.057-13.606-14.095-44.392-39.693-92.406-76.745-42.288-33.429-72.585-61.865-90.84-85.31v644.495h36.806v-348.482c27.556 23.983 60.348 35.973 98.28 35.973 25.989 0 47.036-6.51 63.187-19.529 18.158-14.145 27.261-34.261 27.261-60.348zM1086.438 200.365c0 32.89-16.347 49.335-49.042 49.335-27.507 0-56.872-13.558-88.002-40.722v-173.067c27.017 21.438 52.175 44.343 75.52 68.912 40.966 42.288 61.522 74.101 61.522 95.539zM693.315-30.138l-73.995 212.151h-388.661l-74.040-212.151h-156.621l344.521 961.039h172.284l348.794-961.039h-172.284zM468.35 607.691c-18.465 49.833-31.279 95.396-42.67 148.077h-2.848c-9.966-48.411-25.629-101.093-44.138-152.35l-108.21-297.581h307.502l-109.634 301.852z" />
<glyph unicode="&#xe90a;" glyph-name="Ab_min7" horiz-adv-x="2143" d="M1974.536 574.501h-45.747c39.356 110.66 87.809 221.897 142.074 321.421-14.908-1.109-137.815-1.109-185.691-1.109v38.868h231.482v-34.565c-55.908-102.717-106.446-218.747-142.12-324.615zM1744.251-22.772v264.759c0 57.282-13.267 93.755-67.222 93.755-58.923 0-115.408-62.208-115.408-161.819v-196.74h-73.877v265.647c0 51.47-10.782 92.956-67.222 92.956-63.096 0-115.363-67.222-115.363-161.819v-196.74h-74.719v412.558h72.19c0-24.093-1.686-61.453-6.656-86.345l1.686-0.844c24.049 58.126 77.204 95.441 143.583 95.441 87.144 0 110.393-60.566 113.722-93.755 17.437 39.001 61.408 93.755 141.099 93.755 78.004 0 122.862-42.33 122.862-135.286v-285.57h-74.675zM1134.902 208.036c0-30.163-14.056-60.082-42.17-89.806-13.568-14.056-44.269-39.583-92.148-76.531-42.17-33.335-72.382-61.692-90.587-85.073v642.698h36.703v-347.51c27.479 23.916 60.18 35.873 98.006 35.873 25.916 0 46.905-6.492 63.011-19.475 18.107-14.105 27.185-34.165 27.185-60.18zM1083.41 201.055c0 32.798-16.301 49.198-48.905 49.198-27.43 0-56.714-13.52-87.756-40.608v-172.584c26.942 21.378 52.030 44.219 75.31 68.72 40.852 42.17 61.35 73.894 61.35 95.273zM691.382-28.805l-73.789 211.56h-387.578l-73.833-211.56h-156.184l343.561 958.36h171.803l347.822-958.36h-171.803zM467.044 607.246c-18.414 49.694-31.192 95.13-42.551 147.665h-2.84c-9.938-48.276-25.557-100.811-44.015-151.925l-107.908-296.751h306.645l-109.329 301.010z" />
<glyph unicode="&#xe90b;" glyph-name="Ab_sus4" horiz-adv-x="2054" d="M1248.509 612.7c-17.775 0-36.128 2.010-50.599 4.822l0.983 33.271c15.407-4.377 34.654-7.726 53.5-7.726 34.654 0 58.769 15.407 58.769 40.505 0 57.833-116.647 21.614-116.647 107 0 40.014 32.735 70.381 93.559 70.381 14.916 0 31.752-2.412 46.757-5.269l-0.938-31.305c-15.898 5.269-33.226 8.262-49.571 8.262-35.236 0-52.607-14.513-52.607-38.138 0-57.386 117.138-24.607 117.138-106.064-0.045-42.381-37.602-75.739-100.346-75.739zM1541.244 617.076c0 15.452 1.385 38.54 3.84 53.053l-0.938 0.447c-13.486-34.654-43.898-58.278-85.788-58.278-54.93 0-71.811 34.654-71.811 77.124v167.246h36.128v-155.276c0-37.602 10.138-59.216 44.836-59.216 42.917 0 73.329 42.381 73.329 99.275v115.218h36.128v-239.592h-35.727zM1673.789 612.7c-17.819 0-36.172 2.010-50.599 4.822l0.938 33.271c15.452-4.377 34.7-7.726 53.545-7.726 34.7 0 58.769 15.407 58.769 40.505 0 57.833-116.602 21.614-116.602 107 0 40.014 32.735 70.381 93.514 70.381 14.916 0 31.841-2.412 46.757-5.269l-0.983-31.305c-15.898 5.269-33.226 8.262-49.66 8.262-35.145 0-52.518-14.513-52.518-38.138 0-57.386 117.094-24.607 117.094-106.064 0-42.381-37.602-75.739-100.257-75.739zM1990.192 696.165v-79.090h-35.637v79.090h-148.488l-2.859 28.491 138.35 217.887h48.678v-213.645h55.465v-32.735h-55.51zM1955.047 906.326h-0.491l-114.281-178.856c31.394 1.429 94.005 1.429 114.771 1.429v177.426zM1142.259 206.48c0-30.359-14.147-60.471-42.443-90.388-13.656-14.147-44.556-39.839-92.745-77.027-42.443-33.551-72.852-62.092-91.174-85.624v646.864h36.941v-349.763c27.657 24.071 60.57 36.106 98.641 36.106 26.084 0 47.209-6.534 63.419-19.601 18.225-14.197 27.361-34.387 27.361-60.57zM1090.433 199.455c0 33.011-16.407 49.517-49.222 49.517-27.608 0-57.082-13.608-88.325-40.872v-173.703c27.116 21.517 52.367 44.506 75.798 69.166 41.116 42.443 61.748 74.373 61.748 95.89zM695.864-31.896l-74.267 212.931h-390.090l-74.312-212.931h-157.197l345.788 964.572h172.917l350.076-964.572h-172.917zM470.072 608.278c-18.533 50.017-31.394 95.746-42.827 148.622h-2.859c-10.003-48.589-25.723-101.464-44.3-152.91l-108.608-298.675h308.633l-110.037 302.961z" />
<glyph unicode="&#xe90c;" glyph-name="B_7" horiz-adv-x="939" d="M777.609 574.932h-45.903c39.491 111.037 88.108 222.653 142.558 322.516-14.959-1.113-138.284-1.113-186.324-1.113v39.001h232.271v-34.683c-56.098-103.067-106.808-219.493-142.604-325.721zM262.403-34.705c-58.412 0-155.291 2.804-262.144 4.273v961.625c75.508 1.425 185.211 4.229 302.036 4.229 209.43 0 317.708-85.482 317.708-233.605 0-98.304-65.536-185.211-163.84-219.404v-2.85c125.329-24.219 183.741-119.675 183.741-219.404 0-125.329-82.632-294.868-377.499-294.868zM276.606 811.476c-42.74 0-84.057-1.381-121.1-2.804v-284.894c25.644-1.425 49.864-1.425 82.632-1.425 143.85 0 219.358 58.412 219.358 155.291 0.044 78.314-44.076 133.832-180.891 133.832zM242.458 406.907c-15.717 0-65.536 0-86.907-1.425v-306.265c24.219-4.318 62.686-7.124 112.551-7.124 141 0 207.961 68.386 207.961 165.265 0 109.701-98.26 149.548-233.605 149.548z" />
<glyph unicode="&#xe90d;" glyph-name="B_maj" horiz-adv-x="672" d="M265.483-34.705c-58.412 0-155.291 2.804-262.144 4.273v961.625c75.508 1.425 185.211 4.229 302.036 4.229 209.43 0 317.708-85.482 317.708-233.605 0-98.304-65.536-185.211-163.84-219.404v-2.85c125.329-24.219 183.741-119.675 183.741-219.404 0-125.329-82.632-294.868-377.499-294.868zM279.686 811.476c-42.74 0-84.057-1.381-121.1-2.804v-284.894c25.644-1.425 49.864-1.425 82.632-1.425 143.85 0 219.358 58.412 219.358 155.291 0.044 78.314-44.076 133.832-180.891 133.832zM245.537 406.907c-15.717 0-65.536 0-86.907-1.425v-306.265c24.219-4.318 62.686-7.124 112.551-7.124 141 0 207.961 68.386 207.961 165.265 0 109.701-98.26 149.548-233.605 149.548z" />
<glyph unicode="&#xe90e;" glyph-name="B_maj7" horiz-adv-x="1652" d="M1007.134 606.897v153.922c0 35.937-8.618 59.436-43.223 59.436-36.337 0-71.387-37.847-71.387-99.683v-113.677h-35.492v154.455c0 32.562-6.663 58.903-43.179 58.903-39.269 0-71.431-41.224-71.431-99.683v-113.677h-35.892v238.325h35.448c0-15.37-0.933-37.936-3.819-52.773l0.933-0.533c13.415 35.050 44.643 58.104 83.957 58.104 54.195 0 65.701-38.869 66.632-57.083 8.618 22.522 34.517 57.083 82.935 57.083 44.599 0 70.498-23.944 70.498-77.694v-165.428h-35.981zM1234.397 606.897c0 18.214 0 36.425 2.399 50.375h-0.977c-11.46-30.251-42.157-54.683-82.891-54.683-37.892 0-65.212 20.122-65.212 58.060 0 49.886 51.751 84.357 144.77 84.357v19.634c0 36.027-12.926 56.105-54.195 56.105-23.010 0-51.795-7.152-72.897-20.611l-3.377 31.673c22.522 10.084 50.375 17.681 82.446 17.681 65.701 0 84.401-32.562 84.401-77.65v-93.464c0-23.499 0-50.375 0.933-71.431h-35.404zM1232.444 718.663c-89.689 0-108.834-28.34-108.834-51.353 0-21.5 15.37-35.448 38.869-35.448 42.157 0 69.965 41.669 69.965 82.891v3.91zM1288.547 484.116c-10.084 0-23.010 1.466-32.073 4.354l3.332 31.629c9.063-3.332 20.122-5.73 30.651-5.73 32.117 0 40.78 13.415 40.78 59.925v270.973h35.937v-268.576c0.044-63.301-18.612-92.575-78.627-92.575zM1349.006 888.355c-13.415 0-24.432 10.529-24.432 24.477 0 13.415 11.017 24.477 24.432 24.477 13.904 0 24.921-11.062 24.921-24.477-0.044-13.948-11.017-24.477-24.921-24.477zM1486.404 606.897h-41.224c35.448 99.683 79.116 199.898 127.98 289.631-13.371-0.933-124.159-0.933-167.292-0.933v34.959h208.561v-31.184c-50.285-92.575-95.863-197.012-128.025-292.475zM261.556-33.623c-58.281 0-154.943 2.798-261.556 4.264v959.47c75.339 1.422 184.796 4.22 301.359 4.22 208.961 0 316.996-85.29 316.996-233.082 0-98.084-65.389-184.796-163.473-218.912v-2.844c125.048-24.165 183.33-119.407 183.33-218.912 0-125.048-82.446-294.207-376.653-294.207zM275.728 810.661c-42.644 0-83.868-1.378-120.829-2.798v-284.255c25.587-1.422 49.752-1.422 82.446-1.422 143.527 0 218.866 58.281 218.866 154.943 0.044 78.138-43.978 133.532-180.486 133.532zM241.655 406.999c-15.681 0-65.389 0-86.712-1.422v-305.578c24.165-4.308 62.545-7.108 112.299-7.108 140.684 0 207.495 68.233 207.495 164.895 0 109.455-98.039 149.213-233.082 149.213z" />
<glyph unicode="&#xe90f;" glyph-name="B_min" horiz-adv-x="1385" d="M1260.655-25.137v266.089c0 57.57-13.333 94.226-67.559 94.226-59.219 0-115.987-62.52-115.987-162.632v-197.728h-74.248v266.981c0 51.729-10.836 93.423-67.559 93.423-63.412 0-115.943-67.559-115.943-162.632v-197.728h-75.095v414.63h72.553c0-24.214-1.694-61.761-6.689-86.778l1.694-0.848c24.169 58.418 77.592 95.92 144.304 95.92 87.582 0 110.948-60.871 114.293-94.226 17.525 39.197 61.717 94.226 141.808 94.226 78.395 0 123.48-42.542 123.48-135.965v-287.004h-75.050zM262.566-35.482c-58.506 0-155.541 2.809-262.566 4.28v963.173c75.63 1.427 185.509 4.236 302.522 4.236 209.767 0 318.219-85.619 318.219-233.981 0-98.462-65.642-185.509-164.104-219.757v-2.855c125.531-24.258 184.037-119.868 184.037-219.757 0-125.531-82.765-295.342-378.107-295.342zM276.792 812.061c-42.809 0-84.192-1.383-121.295-2.809v-285.353c25.686-1.427 49.944-1.427 82.765-1.427 144.081 0 219.711 58.506 219.711 155.541 0.044 78.44-44.147 134.047-181.183 134.047zM242.588 406.841c-15.742 0-65.642 0-87.047-1.427v-306.758c24.258-4.325 62.787-7.135 112.732-7.135 141.227 0 208.296 68.496 208.296 165.531 0 109.878-98.418 149.789-233.981 149.789z" />
<glyph unicode="&#xe910;" glyph-name="B_min7" horiz-adv-x="1652" d="M1486.16 574.63h-45.793c39.397 110.774 87.899 222.125 142.219 321.75-14.923-1.11-137.956-1.11-185.881-1.11v38.908h231.719v-34.6c-55.965-102.822-106.555-218.971-142.265-324.947zM1255.64-23.254v265.030c0 57.341-13.28 93.851-67.291 93.851-58.984 0-115.526-62.271-115.526-161.985v-196.941h-73.953v265.919c0 51.523-10.793 93.051-67.291 93.051-63.16 0-115.481-67.291-115.481-161.985v-196.941h-74.796v412.981h72.264c0-24.118-1.687-61.515-6.662-86.433l1.687-0.844c24.073 58.185 77.283 95.539 143.729 95.539 87.233 0 110.506-60.628 113.838-93.851 17.455 39.041 61.471 93.851 141.244 93.851 78.084 0 122.988-42.373 122.988-135.424v-285.862h-74.752zM261.521-33.559c-58.274 0-154.922 2.797-261.521 4.263v959.341c75.329 1.422 184.771 4.219 301.318 4.219 208.933 0 316.953-85.279 316.953-233.050 0-98.071-65.38-184.771-163.451-218.883v-2.843c125.031-24.162 183.305-119.391 183.305-218.883 0-125.031-82.435-294.167-376.603-294.167zM275.69 810.612c-42.639 0-83.857-1.377-120.812-2.797v-284.217c25.583-1.422 49.745-1.422 82.435-1.422 143.508 0 218.837 58.274 218.837 154.922 0.044 78.128-43.972 133.514-180.462 133.514zM241.623 407.004c-15.679 0-65.38 0-86.7-1.422v-305.537c24.162-4.308 62.537-7.107 112.284-7.107 140.665 0 207.467 68.224 207.467 164.873 0 109.441-98.026 149.193-233.050 149.193z" />
<glyph unicode="&#xe911;" glyph-name="B_sus4" horiz-adv-x="1563" d="M749.57 611.421c-17.637 0-35.847 1.994-50.206 4.785l0.975 33.012c15.287-4.343 34.385-7.666 53.085-7.666 34.385 0 58.313 15.287 58.313 40.191 0 57.384-115.741 21.447-115.741 106.169 0 39.703 32.481 69.835 92.832 69.835 14.8 0 31.506-2.393 46.394-5.228l-0.931-31.062c-15.775 5.228-32.968 8.197-49.186 8.197-34.962 0-52.198-14.401-52.198-37.841 0-56.94 116.228-24.416 116.228-105.24-0.044-42.052-37.31-75.151-99.567-75.151zM1040.031 615.762c0 15.332 1.374 38.241 3.81 52.641l-0.931 0.443c-13.382-34.385-43.557-57.825-85.122-57.825-54.503 0-71.253 34.385-71.253 76.525v165.947h35.847v-154.070c0-37.31 10.059-58.756 44.488-58.756 42.584 0 72.76 42.052 72.76 98.504v114.323h35.847v-237.731h-35.45zM1171.547 611.421c-17.681 0-35.891 1.994-50.206 4.785l0.931 33.012c15.332-4.343 34.431-7.666 53.129-7.666 34.431 0 58.313 15.287 58.313 40.191 0 57.384-115.697 21.447-115.697 106.169 0 39.703 32.481 69.835 92.788 69.835 14.8 0 31.594-2.393 46.394-5.228l-0.975-31.062c-15.775 5.228-32.968 8.197-49.275 8.197-34.872 0-52.11-14.401-52.11-37.841 0-56.94 116.184-24.416 116.184-105.24 0-42.052-37.31-75.151-99.479-75.151zM1485.493 694.238v-78.475h-35.36v78.475h-147.335l-2.837 28.27 137.276 216.195h48.3v-211.985h55.035v-32.481h-55.079zM1450.62 902.766h-0.487l-113.393-177.466c31.151 1.418 93.275 1.418 113.879 1.418v176.048zM260.905-32.424c-58.136 0-154.557 2.791-260.905 4.253v957.080c75.151 1.418 184.336 4.209 300.608 4.209 208.44 0 316.206-85.078 316.206-232.501 0-97.839-65.226-184.336-163.066-218.367v-2.837c124.737-24.105 182.873-119.109 182.873-218.367 0-124.737-82.241-293.474-375.715-293.474zM275.041 809.758c-42.538 0-83.659-1.374-120.528-2.791v-283.547c25.523-1.418 49.628-1.418 82.241-1.418 143.17 0 218.321 58.136 218.321 154.557 0.044 77.944-43.868 133.199-180.036 133.199zM241.054 407.101c-15.642 0-65.226 0-86.496-1.418v-304.817c24.105-4.297 62.39-7.090 112.019-7.090 140.333 0 206.978 68.063 206.978 164.484 0 109.183-97.795 148.842-232.501 148.842z" />
<glyph unicode="&#xe912;" glyph-name="Bb_7" horiz-adv-x="1233" d="M1074.879 575.368h-46.060c39.626 111.42 88.412 223.42 143.049 323.626-15.010-1.117-138.76-1.117-186.965-1.117v39.135h233.070v-34.802c-56.291-103.422-107.176-220.248-143.095-326.842zM944.286 206.39c0-30.37-14.152-60.494-42.459-90.422-13.661-14.152-44.572-39.854-92.78-77.056-42.459-33.564-72.879-62.116-91.208-85.656v647.107h36.955v-349.894c27.668 24.080 60.593 36.119 98.678 36.119 26.094 0 47.227-6.537 63.443-19.609 18.232-14.202 27.372-34.4 27.372-60.593zM892.441 199.361c0 33.023-16.413 49.535-49.241 49.535-27.618 0-57.103-13.613-88.359-40.887v-173.768c27.127 21.525 52.387 44.523 75.826 69.192 41.132 42.459 61.771 74.401 61.771 95.926zM263.046-36.366c-58.613 0-155.826 2.814-263.046 4.288v964.934c75.768 1.43 185.848 4.244 303.075 4.244 210.151 0 318.801-85.776 318.801-234.409 0-98.642-65.762-185.848-164.404-220.159v-2.86c125.76-24.303 184.374-120.087 184.374-220.159 0-125.76-82.916-295.882-378.799-295.882zM277.298 812.727c-42.887 0-84.346-1.385-121.517-2.814v-285.874c25.733-1.43 50.035-1.43 82.916-1.43 144.345 0 220.113 58.613 220.113 155.826 0.045 78.583-44.228 134.292-181.514 134.292zM243.032 406.765c-15.771 0-65.762 0-87.206-1.43v-307.319c24.303-4.333 62.902-7.148 112.939-7.148 141.485 0 208.676 68.621 208.676 165.834 0 110.079-98.598 150.063-234.409 150.063z" />
<glyph unicode="&#xe913;" glyph-name="Bb_maj" horiz-adv-x="966" d="M937.708 207.218c0-30.266-14.104-60.286-42.313-90.112-13.614-14.104-44.419-39.718-92.462-76.791-42.313-33.449-72.629-61.903-90.895-85.362v644.888h36.828v-348.694c27.573 23.997 60.385 35.995 98.34 35.995 26.004 0 47.065-6.514 63.225-19.541 18.169-14.153 27.278-34.282 27.278-60.385zM886.041 200.214c0 32.91-16.357 49.365-49.072 49.365-27.523 0-56.907-13.566-88.055-40.747v-173.172c27.034 21.451 52.207 44.37 75.566 68.954 40.991 42.313 61.559 74.146 61.559 95.597zM258.805-34.705c-58.412 0-155.291 2.804-262.144 4.273v961.625c75.508 1.425 185.211 4.229 302.036 4.229 209.43 0 317.708-85.482 317.708-233.605 0-98.304-65.536-185.211-163.84-219.404v-2.85c125.329-24.219 183.741-119.675 183.741-219.404 0-125.329-82.632-294.868-377.499-294.868zM273.008 811.476c-42.74 0-84.057-1.381-121.1-2.804v-284.894c25.644-1.425 49.864-1.425 82.632-1.425 143.85 0 219.358 58.412 219.358 155.291 0.044 78.314-44.076 133.832-180.891 133.832zM238.859 406.907c-15.717 0-65.536 0-86.907-1.425v-306.265c24.219-4.318 62.686-7.124 112.551-7.124 141 0 207.961 68.386 207.961 165.265 0 109.701-98.26 149.548-233.605 149.548z" />
<glyph unicode="&#xe914;" glyph-name="Bb_maj7" horiz-adv-x="1946" d="M1303.24 607.254v154.267c0 36.017-8.637 59.569-43.32 59.569-36.419 0-71.547-37.932-71.547-99.907v-113.932h-35.572v154.801c0 32.635-6.678 59.035-43.276 59.035-39.357 0-71.591-41.317-71.591-99.907v-113.932h-35.973v238.86h35.528c0-15.404-0.935-38.021-3.828-52.891l0.935-0.534c13.445 35.128 44.744 58.235 84.145 58.235 54.316 0 65.848-38.956 66.782-57.211 8.637 22.572 34.594 57.211 83.121 57.211 44.699 0 70.656-23.997 70.656-77.868v-165.799h-36.062zM1531.013 607.254c0 18.255 0 36.507 2.405 50.488h-0.98c-11.486-30.319-42.252-54.806-83.077-54.806-37.977 0-65.359 20.168-65.359 58.191 0 49.999 51.867 84.547 145.096 84.547v19.678c0 36.108-12.955 56.231-54.316 56.231-23.062 0-51.912-7.168-73.061-20.657l-3.384 31.744c22.572 10.107 50.488 17.72 82.632 17.72 65.848 0 84.591-32.635 84.591-77.824v-93.674c0-23.552 0-50.488 0.935-71.591h-35.483zM1529.054 719.271c-89.89 0-109.078-28.404-109.078-51.468 0-21.548 15.404-35.528 38.956-35.528 42.252 0 70.122 41.762 70.122 83.077v3.919zM1585.285 484.197c-10.107 0-23.062 1.469-32.145 4.364l3.34 31.7c9.083-3.34 20.168-5.743 30.72-5.743 32.189 0 40.871 13.445 40.871 60.059v271.582h36.017v-269.179c0.044-63.444-18.654-92.783-78.804-92.783zM1645.88 889.344c-13.445 0-24.487 10.552-24.487 24.532 0 13.445 11.042 24.532 24.487 24.532 13.935 0 24.977-11.087 24.977-24.532-0.044-13.979-11.042-24.532-24.977-24.532zM1783.586 607.254h-41.317c35.528 99.907 79.293 200.347 128.268 290.282-13.401-0.935-124.438-0.935-167.668-0.935v35.038h209.029v-31.254c-50.398-92.783-96.079-197.455-128.312-293.132zM941.047 207.218c0-30.266-14.104-60.286-42.313-90.112-13.614-14.104-44.419-39.718-92.462-76.791-42.313-33.449-72.629-61.903-90.895-85.362v644.888h36.828v-348.694c27.573 23.997 60.385 35.995 98.34 35.995 26.004 0 47.065-6.514 63.225-19.541 18.169-14.153 27.278-34.282 27.278-60.385zM889.38 200.214c0 32.91-16.357 49.365-49.072 49.365-27.523 0-56.907-13.566-88.055-40.747v-173.172c27.034 21.451 52.207 44.37 75.566 68.954 40.991 42.313 61.559 74.146 61.559 95.597zM262.144-34.705c-58.412 0-155.291 2.804-262.144 4.273v961.625c75.508 1.425 185.211 4.229 302.036 4.229 209.43 0 317.708-85.482 317.708-233.605 0-98.304-65.536-185.211-163.84-219.404v-2.85c125.329-24.219 183.741-119.675 183.741-219.404 0-125.329-82.632-294.868-377.499-294.868zM276.347 811.476c-42.74 0-84.057-1.381-121.1-2.804v-284.894c25.644-1.425 49.864-1.425 82.632-1.425 143.85 0 219.358 58.412 219.358 155.291 0.044 78.314-44.076 133.832-180.891 133.832zM242.198 406.907c-15.717 0-65.536 0-86.907-1.425v-306.265c24.219-4.318 62.686-7.124 112.551-7.124 141 0 207.961 68.386 207.961 165.265 0 109.701-98.26 149.548-233.605 149.548z" />
<glyph unicode="&#xe915;" glyph-name="Bb_min" horiz-adv-x="1678" d="M1557.982-26.053v266.604c0 57.681-13.359 94.409-67.69 94.409-59.334 0-116.212-62.641-116.212-162.947v-198.111h-74.392v267.498c0 51.829-10.857 93.604-67.69 93.604-63.535 0-116.167-67.69-116.167-162.947v-198.111h-75.24v415.433h72.693c0-24.261-1.697-61.881-6.702-86.946l1.697-0.85c24.216 58.531 77.742 96.106 144.583 96.106 87.751 0 111.163-60.988 114.514-94.409 17.559 39.273 61.836 94.409 142.082 94.409 78.547 0 123.719-42.625 123.719-136.228v-287.559h-75.195zM944.387 206.364c0-30.373-14.154-60.5-42.464-90.432-13.662-14.154-44.577-39.859-92.79-77.064-42.464-33.568-72.887-62.122-91.218-85.665v647.177h36.959v-349.932c27.671 24.083 60.6 36.123 98.689 36.123 26.097 0 47.232-6.537 63.45-19.611 18.234-14.204 27.374-34.403 27.374-60.6zM892.536 199.335c0 33.026-16.415 49.541-49.246 49.541-27.621 0-57.109-13.614-88.368-40.891v-173.787c27.13 21.527 52.392 44.527 75.834 69.199 41.136 42.464 61.778 74.409 61.778 95.937zM263.074-36.418c-58.62 0-155.842 2.814-263.074 4.289v965.038c75.776 1.43 185.868 4.244 303.108 4.244 210.173 0 318.835-85.785 318.835-234.434 0-98.653-65.769-185.868-164.421-220.183v-2.86c125.774-24.305 184.394-120.1 184.394-220.183 0-125.774-82.925-295.914-378.839-295.914zM277.328 812.766c-42.892 0-84.355-1.386-121.53-2.814v-285.905c25.735-1.43 50.041-1.43 82.925-1.43 144.36 0 220.136 58.62 220.136 155.842 0.045 78.592-44.233 134.307-181.533 134.307zM243.058 406.761c-15.772 0-65.769 0-87.215-1.43v-307.352c24.305-4.333 62.908-7.149 112.951-7.149 141.5 0 208.699 68.629 208.699 165.852 0 110.090-98.608 150.079-234.434 150.079z" />
<glyph unicode="&#xe916;" glyph-name="Bb_min7" horiz-adv-x="1945" d="M1783.337 574.917h-45.897c39.486 111.025 88.098 222.628 142.542 322.479-14.957-1.113-138.269-1.113-186.302-1.113v38.996h232.244v-34.679c-56.092-103.056-106.796-219.468-142.588-325.684zM1552.296-24.322v265.631c0 57.471-13.31 94.064-67.443 94.064-59.117 0-115.788-62.413-115.788-162.352v-197.388h-74.121v266.522c0 51.64-10.817 93.262-67.443 93.262-63.303 0-115.743-67.443-115.743-162.352v-197.388h-74.965v413.917h72.428c0-24.172-1.691-61.655-6.677-86.629l1.691-0.846c24.128 58.317 77.458 95.755 144.055 95.755 87.431 0 110.757-60.766 114.096-94.064 17.495 39.129 61.61 94.064 141.564 94.064 78.261 0 123.267-42.469 123.267-135.731v-286.51h-74.921zM940.94 207.246c0-30.263-14.102-60.279-42.309-90.102-13.613-14.102-44.414-39.713-92.452-76.783-42.309-33.445-72.621-61.895-90.885-85.353v644.814h36.824v-348.654c27.57 23.995 60.378 35.991 98.329 35.991 26.002 0 47.059-6.514 63.218-19.539 18.167-14.152 27.275-34.278 27.275-60.378zM889.278 200.242c0 32.906-16.355 49.36-49.066 49.36-27.52 0-56.901-13.565-88.045-40.742v-173.152c27.031 21.449 52.201 44.365 75.557 68.947 40.986 42.309 61.552 74.138 61.552 95.586zM262.114-34.65c-58.406 0-155.274 2.804-262.114 4.273v961.515c75.499 1.425 185.19 4.229 302.001 4.229 209.406 0 317.672-85.472 317.672-233.578 0-98.293-65.529-185.19-163.821-219.379v-2.85c125.315-24.217 183.72-119.661 183.72-219.379 0-125.315-82.622-294.834-377.456-294.834zM276.315 811.434c-42.735 0-84.047-1.381-121.086-2.804v-284.861c25.641-1.425 49.858-1.425 82.622-1.425 143.833 0 219.333 58.406 219.333 155.274 0.044 78.305-44.071 133.816-180.871 133.816zM242.171 406.912c-15.715 0-65.529 0-86.897-1.425v-306.23c24.217-4.317 62.679-7.123 112.538-7.123 140.984 0 207.937 68.378 207.937 165.246 0 109.689-98.248 149.531-233.578 149.531z" />
<glyph unicode="&#xe917;" glyph-name="Bb_sus4" horiz-adv-x="1857" d="M1044.885 611.869c-17.685 0-35.946 2-50.343 4.798l0.978 33.103c15.329-4.355 34.479-7.687 53.23-7.687 34.479 0 58.473 15.329 58.473 40.301 0 57.541-116.059 21.505-116.059 106.461 0 39.812 32.57 70.026 93.087 70.026 14.841 0 31.592-2.4 46.521-5.243l-0.933-31.148c-15.818 5.243-33.059 8.22-49.321 8.22-35.058 0-52.341-14.44-52.341-37.945 0-57.097 116.547-24.483 116.547-105.529-0.044-42.168-37.412-75.357-99.84-75.357zM1336.143 616.223c0 15.374 1.378 38.346 3.82 52.786l-0.933 0.445c-13.418-34.479-43.677-57.984-85.356-57.984-54.653 0-71.448 34.479-71.448 76.735v166.402h35.946v-154.493c0-37.412 10.087-58.918 44.61-58.918 42.701 0 72.959 42.168 72.959 98.774v114.636h35.946v-238.384h-35.547zM1468.020 611.869c-17.729 0-35.99 2-50.343 4.798l0.933 33.103c15.374-4.355 34.525-7.687 53.275-7.687 34.525 0 58.473 15.329 58.473 40.301 0 57.541-116.014 21.505-116.014 106.461 0 39.812 32.57 70.026 93.042 70.026 14.841 0 31.681-2.4 46.521-5.243l-0.978-31.148c-15.818 5.243-33.059 8.22-49.41 8.22-34.968 0-52.253-14.44-52.253-37.945 0-57.097 116.503-24.483 116.503-105.529 0-42.168-37.412-75.357-99.752-75.357zM1782.827 694.913v-78.691h-35.457v78.691h-147.739l-2.844 28.347 137.653 216.788h48.432v-212.567h55.186v-32.57h-55.23zM1747.859 904.015h-0.489l-113.705-177.953c31.236 1.422 93.531 1.422 114.192 1.422v176.531zM939.171 207.699c0-30.206-14.076-60.166-42.229-89.932-13.587-14.076-44.331-39.638-92.278-76.638-42.229-33.382-72.484-61.779-90.714-85.192v643.602h36.755v-347.999c27.518 23.95 60.265 35.924 98.144 35.924 25.953 0 46.971-6.501 63.099-19.502 18.133-14.125 27.223-34.213 27.223-60.265zM887.606 200.708c0 32.844-16.324 49.267-48.974 49.267-27.469 0-56.794-13.539-87.88-40.665v-172.827c26.98 21.408 52.103 44.281 75.415 68.817 40.909 42.229 61.437 73.998 61.437 95.407zM261.621-33.742c-58.296 0-154.982 2.798-261.621 4.265v959.707c75.357 1.422 184.841 4.221 301.433 4.221 209.012 0 317.074-85.311 317.074-233.139 0-98.108-65.405-184.841-163.513-218.966v-2.844c125.079-24.171 183.375-119.436 183.375-218.966 0-125.079-82.467-294.28-376.746-294.28zM275.796 810.751c-42.655 0-83.889-1.378-120.858-2.798v-284.326c25.593-1.422 49.764-1.422 82.467-1.422 143.563 0 218.92 58.296 218.92 154.982 0.044 78.158-43.988 133.565-180.531 133.565zM241.715 406.989c-15.685 0-65.405 0-86.734-1.422v-305.654c24.171-4.309 62.561-7.109 112.327-7.109 140.718 0 207.546 68.25 207.546 164.935 0 109.482-98.064 149.25-233.139 149.25z" />
<glyph unicode="&#xe918;" glyph-name="C_7" d="M861.753 574.904h-45.893c39.482 111.013 88.089 222.605 142.527 322.446-14.956-1.113-138.254-1.113-186.283-1.113v38.992h232.22v-34.675c-56.086-103.045-106.785-219.445-142.573-325.65zM474.856-41.723c-321.912 0-440.136 207.96-440.136 464.306 0 299.121 150.985 517.008 474.277 517.008 71.219 0 145.288-11.395 212.234-27.019l-17.092-142.438c-69.794 21.366-138.166 32.761-207.96 32.761-200.838 0-291.999-153.835-291.999-354.673 0-223.585 95.433-350.354 304.818-350.354 65.522 0 149.516 18.517 202.263 44.156l18.517-138.166c-72.6-28.488-162.38-45.58-254.921-45.58z" />
<glyph unicode="&#xe919;" glyph-name="C_maj" horiz-adv-x="757" d="M477.926-41.829c-321.981 0-440.231 208.005-440.231 464.406 0 299.185 151.018 517.12 474.38 517.12 71.235 0 145.319-11.397 212.28-27.025l-17.096-142.469c-69.809 21.371-138.196 32.768-208.005 32.768-200.881 0-292.062-153.868-292.062-354.749 0-223.633 95.454-350.43 304.884-350.43 65.536 0 149.548 18.521 202.307 44.165l18.521-138.196c-72.615-28.495-162.415-45.59-254.976-45.59z" />
<glyph unicode="&#xe91a;" glyph-name="C_maj7" horiz-adv-x="1736" d="M1091.19 606.847v153.873c0 35.925-8.615 59.417-43.21 59.417-36.325 0-71.364-37.835-71.364-99.651v-113.641h-35.481v154.406c0 32.551-6.661 58.884-43.165 58.884-39.257 0-71.408-41.211-71.408-99.651v-113.641h-35.881v238.249h35.437c0-15.365-0.933-37.924-3.818-52.756l0.933-0.533c13.411 35.038 44.629 58.086 83.93 58.086 54.177 0 65.68-38.857 66.611-57.065 8.615 22.515 34.506 57.065 82.909 57.065 44.585 0 70.475-23.936 70.475-77.669v-165.375h-35.97zM1318.381 606.847c0 18.208 0 36.414 2.399 50.359h-0.977c-11.456-30.241-42.144-54.666-82.865-54.666-37.88 0-65.191 20.116-65.191 58.042 0 49.871 51.735 84.33 144.725 84.33v19.628c0 36.016-12.922 56.087-54.177 56.087-23.003 0-51.779-7.15-72.874-20.605l-3.376 31.663c22.515 10.081 50.359 17.675 82.42 17.675 65.68 0 84.375-32.551 84.375-77.625v-93.434c0-23.492 0-50.359 0.933-71.408h-35.393zM1316.427 718.577c-89.66 0-108.799-28.331-108.799-51.336 0-21.493 15.365-35.437 38.857-35.437 42.144 0 69.942 41.655 69.942 82.865v3.908zM1372.514 484.104c-10.081 0-23.003 1.466-32.063 4.353l3.331 31.619c9.060-3.331 20.116-5.728 30.641-5.728 32.107 0 40.767 13.411 40.767 59.906v270.887h35.925v-268.49c0.044-63.281-18.606-92.546-78.602-92.546zM1432.953 888.215c-13.411 0-24.425 10.525-24.425 24.469 0 13.411 11.014 24.469 24.425 24.469 13.899 0 24.913-11.058 24.913-24.469-0.044-13.944-11.014-24.469-24.913-24.469zM1570.307 606.847h-41.211c35.437 99.651 79.091 199.835 127.94 289.539-13.366-0.933-124.12-0.933-167.239-0.933v34.948h208.494v-31.174c-50.269-92.546-95.833-196.949-127.984-292.382zM473.744-40.576c-321.158 0-439.105 207.473-439.105 463.218 0 298.42 150.632 515.797 473.167 515.797 71.052 0 144.948-11.368 211.737-26.956l-17.052-142.105c-69.631 21.316-137.842 32.684-207.473 32.684-200.368 0-291.315-153.474-291.315-353.842 0-223.061 95.21-349.534 304.104-349.534 65.368 0 149.166 18.473 201.789 44.052l18.473-137.842c-72.43-28.422-161.999-45.474-254.324-45.474z" />
<glyph unicode="&#xe91b;" glyph-name="C_min" horiz-adv-x="1469" d="M1344.579-24.854v265.93c0 57.535-13.325 94.17-67.519 94.17-59.184 0-115.918-62.483-115.918-162.535v-197.61h-74.204v266.822c0 51.698-10.83 93.367-67.519 93.367-63.375 0-115.873-67.519-115.873-162.535v-197.61h-75.050v414.383h72.509c0-24.199-1.693-61.724-6.685-86.727l1.693-0.847c24.155 58.383 77.546 95.863 144.217 95.863 87.53 0 110.882-60.834 114.225-94.17 17.514 39.173 61.68 94.17 141.723 94.17 78.349 0 123.406-42.517 123.406-135.884v-286.832h-75.005zM475.439-42.324c-322.307 0-440.677 208.216-440.677 464.876 0 299.488 151.171 517.643 474.86 517.643 71.307 0 145.466-11.409 212.495-27.052l-17.113-142.613c-69.88 21.392-138.335 32.801-208.216 32.801-201.085 0-292.357-154.024-292.357-355.108 0-223.859 95.55-350.784 305.192-350.784 65.602 0 149.7 18.539 202.511 44.21l18.539-138.335c-72.689-28.523-162.579-45.636-255.234-45.636z" />
<glyph unicode="&#xe91c;" glyph-name="C_min7" horiz-adv-x="1736" d="M1570.062 574.591h-45.779c39.385 110.739 87.872 222.056 142.175 321.65-14.919-1.11-137.913-1.11-185.823-1.11v38.896h231.647v-34.59c-55.947-102.791-106.522-218.903-142.221-324.846zM1339.613-23.108v264.948c0 57.323-13.276 93.822-67.27 93.822-58.965 0-115.49-62.252-115.49-161.935v-196.88h-73.93v265.837c0 51.507-10.79 93.022-67.27 93.022-63.14 0-115.446-67.27-115.446-161.935v-196.88h-74.773v412.852h72.242c0-24.11-1.687-61.496-6.66-86.406l1.687-0.844c24.066 58.167 77.259 95.509 143.685 95.509 87.206 0 110.472-60.609 113.803-93.822 17.45 39.029 61.452 93.822 141.2 93.822 78.059 0 122.95-42.36 122.95-135.382v-285.773h-74.728zM473.683-40.513c-321.117 0-439.049 207.447-439.049 463.159 0 298.382 150.612 515.731 473.106 515.731 71.043 0 144.929-11.367 211.71-26.952l-17.050-142.087c-69.622 21.313-137.825 32.68-207.447 32.68-200.342 0-291.278-153.455-291.278-353.797 0-223.033 95.198-349.489 304.065-349.489 65.36 0 149.147 18.471 201.763 44.047l18.471-137.825c-72.42-28.418-161.979-45.468-254.291-45.468z" />
<glyph unicode="&#xe91d;" glyph-name="C_sus4" horiz-adv-x="1647" d="M833.59 611.387c-17.633 0-35.84 1.994-50.195 4.784l0.975 33.006c15.284-4.342 34.378-7.664 53.074-7.664 34.378 0 58.301 15.284 58.301 40.182 0 57.372-115.717 21.442-115.717 106.147 0 39.695 32.474 69.82 92.813 69.82 14.797 0 31.499-2.393 46.384-5.227l-0.931-31.056c-15.772 5.227-32.961 8.196-49.176 8.196-34.955 0-52.187-14.398-52.187-37.834 0-56.929 116.205-24.411 116.205-105.219-0.044-42.044-37.302-75.136-99.546-75.136zM1123.991 615.728c0 15.328 1.374 38.233 3.809 52.631l-0.931 0.443c-13.379-34.378-43.548-57.814-85.104-57.814-54.492 0-71.238 34.378-71.238 76.51v165.912h35.84v-154.038c0-37.302 10.057-58.744 44.479-58.744 42.575 0 72.745 42.044 72.745 98.483v114.299h35.84v-237.682h-35.443zM1255.48 611.387c-17.677 0-35.884 1.994-50.195 4.784l0.931 33.006c15.328-4.342 34.424-7.664 53.118-7.664 34.424 0 58.301 15.284 58.301 40.182 0 57.372-115.673 21.442-115.673 106.147 0 39.695 32.474 69.82 92.769 69.82 14.797 0 31.587-2.393 46.384-5.227l-0.975-31.056c-15.772 5.227-32.961 8.196-49.265 8.196-34.865 0-52.099-14.398-52.099-37.834 0-56.929 116.16-24.411 116.16-105.219 0-42.044-37.302-75.136-99.458-75.136zM1569.361 694.187v-78.459h-35.352v78.459h-147.305l-2.836 28.264 137.248 216.15h48.29v-211.942h55.023v-32.474h-55.067zM1534.496 902.673h-0.487l-113.37-177.43c31.144 1.418 93.256 1.418 113.856 1.418v176.012zM472.617-39.413c-320.394 0-438.060 206.979-438.060 462.116 0 297.71 150.273 514.57 472.041 514.57 70.883 0 144.603-11.341 211.234-26.892l-17.011-141.767c-69.465 21.266-137.514 32.606-206.979 32.606-199.891 0-290.622-153.109-290.622-353 0-222.53 94.983-348.702 303.381-348.702 65.213 0 148.811 18.429 201.309 43.947l18.429-137.514c-72.257-28.354-161.614-45.365-253.719-45.365z" />
<glyph unicode="&#xe91e;" glyph-name="Cs_7" horiz-adv-x="1318" d="M1158.85 575.268h-46.024c39.595 111.332 88.342 223.244 142.936 323.371-14.999-1.116-138.651-1.116-186.818-1.116v39.104h232.887v-34.775c-56.247-103.341-107.092-220.075-142.982-326.585zM1023.253 168.916l-43.801-19.052v-130.812l-26.173-9.92v132.188l-93.445-34.914v-133.661l-26.173-10.606v136.509l-44.587-15.615v87.748l44.587 16.941v123.742l-44.537-16.253v88.387l44.587 16.303v139.947l26.173 9.182v-140.044l93.445 33.587v143.58l26.173 8.446v-142.794l43.849 15.517v-86.275l-43.899-17.677v-123.791l43.849 15.517v-86.177zM955.391 230.444v124.477l-98.354-35.011v-124.38l98.354 34.914zM476.219-43.128c-322.836 0-441.399 208.557-441.399 465.638 0 299.979 151.419 518.492 475.639 518.492 71.424 0 145.705-11.427 212.844-27.097l-17.141-142.847c-69.995 21.428-138.562 32.855-208.557 32.855-201.414 0-292.837-154.276-292.837-355.691 0-224.226 95.707-351.36 305.693-351.36 65.71 0 149.945 18.57 202.843 44.282l18.57-138.562c-72.808-28.57-162.846-45.711-255.653-45.711z" />
<glyph unicode="&#xe91f;" glyph-name="Cs_maj" horiz-adv-x="1051" d="M1013.389 171.607l-43.379-18.869v-129.551l-25.92-9.824v130.914l-92.544-34.577v-132.373l-25.92-10.504v135.193l-44.157-15.464v86.902l44.157 16.778v122.549l-44.108-16.096v87.535l44.157 16.145v138.597l25.92 9.094v-138.694l92.544 33.264v142.195l25.92 8.365v-141.417l43.427 15.368v-85.443l-43.476-17.506v-122.598l43.427 15.368v-85.347zM946.18 232.541v123.277l-97.406-34.674v-123.181l97.406 34.577zM471.628-38.394c-319.723 0-437.144 206.546-437.144 461.149 0 297.087 149.959 513.493 471.053 513.493 70.735 0 144.3-11.317 210.792-26.836l-16.976-141.47c-69.32 21.221-137.226 32.538-206.546 32.538-199.473 0-290.014-152.789-290.014-352.262 0-222.065 94.784-347.972 302.746-347.972 65.076 0 148.5 18.391 200.888 43.855l18.391-137.226c-72.106-28.295-161.276-45.27-253.188-45.27z" />
<glyph unicode="&#xe920;" glyph-name="Cs_maj7" horiz-adv-x="2030" d="M1387.325 607.196v154.211c0 36.004-8.634 59.548-43.304 59.548-36.405 0-71.521-37.919-71.521-99.87v-113.89h-35.559v154.745c0 32.623-6.676 59.014-43.26 59.014-39.343 0-71.565-41.302-71.565-99.87v-113.89h-35.96v238.773h35.515c0-15.399-0.935-38.007-3.827-52.872l0.935-0.534c13.44 35.115 44.727 58.214 84.115 58.214 54.297 0 65.824-38.942 66.757-57.19 8.634 22.564 34.581 57.19 83.091 57.19 44.683 0 70.63-23.989 70.63-77.84v-165.739h-36.049zM1615.013 607.196c0 18.248 0 36.494 2.404 50.47h-0.979c-11.482-30.308-42.237-54.786-83.047-54.786-37.963 0-65.335 20.16-65.335 58.169 0 49.98 51.848 84.516 145.043 84.516v19.671c0 36.095-12.951 56.211-54.297 56.211-23.054 0-51.893-7.165-73.034-20.65l-3.383 31.732c22.564 10.103 50.47 17.714 82.601 17.714 65.824 0 84.56-32.623 84.56-77.796v-93.64c0-23.543 0-50.47 0.935-71.565h-35.47zM1613.057 719.172c-89.857 0-109.038-28.394-109.038-51.449 0-21.54 15.399-35.515 38.942-35.515 42.237 0 70.096 41.747 70.096 83.047v3.917zM1669.266 484.183c-10.103 0-23.054 1.469-32.133 4.362l3.339 31.688c9.080-3.339 20.16-5.741 30.709-5.741 32.178 0 40.856 13.44 40.856 60.037v271.483h36.004v-269.080c0.044-63.42-18.647-92.749-78.775-92.749zM1729.839 889.183c-13.44 0-24.478 10.548-24.478 24.523 0 13.44 11.038 24.523 24.478 24.523 13.93 0 24.968-11.082 24.968-24.523-0.044-13.974-11.038-24.523-24.968-24.523zM1867.494 607.196h-41.302c35.515 99.87 79.264 200.274 128.221 290.176-13.396-0.935-124.393-0.935-167.607-0.935v35.025h208.953v-31.243c-50.379-92.749-96.043-197.382-128.265-293.025zM1020.173 169.756l-43.67-18.995v-130.418l-26.094-9.89v131.79l-93.164-34.808v-133.259l-26.094-10.574v136.098l-44.453-15.568v87.484l44.453 16.89v123.369l-44.403-16.204v88.121l44.453 16.253v139.525l26.094 9.155v-139.623l93.164 33.486v143.147l26.094 8.421v-142.364l43.717 15.47v-86.015l-43.767-17.623v-123.419l43.717 15.47v-85.918zM952.514 231.099v124.103l-98.058-34.906v-124.005l98.058 34.808zM474.785-41.65c-321.864 0-440.070 207.929-440.070 464.236 0 299.076 150.963 516.931 474.207 516.931 71.209 0 145.266-11.393 212.203-27.015l-17.089-142.417c-69.784 21.363-138.145 32.756-207.929 32.756-200.808 0-291.955-153.812-291.955-354.62 0-223.551 95.419-350.302 304.773-350.302 65.512 0 149.494 18.514 202.233 44.149l18.514-138.145c-72.589-28.484-162.356-45.574-254.883-45.574z" />
<glyph unicode="&#xe921;" glyph-name="Cs_min" horiz-adv-x="1763" d="M1641.9-25.772v266.446c0 57.647-13.351 94.353-67.65 94.353-59.299 0-116.143-62.604-116.143-162.85v-197.993h-74.348v267.34c0 51.798-10.851 93.548-67.65 93.548-63.498 0-116.098-67.65-116.098-162.85v-197.993h-75.195v415.187h72.65c0-24.246-1.696-61.844-6.698-86.895l1.696-0.849c24.202 58.496 77.696 96.049 144.497 96.049 87.699 0 111.097-60.952 114.447-94.353 17.548 39.249 61.8 94.353 141.998 94.353 78.501 0 123.645-42.599 123.645-136.148v-287.389h-75.151zM1023.561 168.832l-43.815-19.058v-130.852l-26.181-9.923v132.228l-93.473-34.924v-133.702l-26.181-10.609v136.55l-44.6-15.619v87.775l44.6 16.946v123.779l-44.551-16.258v88.413l44.6 16.307v139.989l26.181 9.185v-140.086l93.473 33.597v143.623l26.181 8.449v-142.837l43.863 15.522v-86.301l-43.912-17.682v-123.828l43.863 15.522v-86.203zM955.678 230.378v124.515l-98.384-35.022v-124.417l98.384 34.924zM476.362-43.276c-322.933 0-441.532 208.62-441.532 465.778 0 300.069 151.464 518.648 475.781 518.648 71.445 0 145.749-11.431 212.907-27.105l-17.146-142.89c-70.016 21.434-138.604 32.865-208.62 32.865-201.475 0-292.925-154.323-292.925-355.797 0-224.294 95.736-351.465 305.785-351.465 65.73 0 149.99 18.575 202.904 44.296l18.575-138.604c-72.83-28.579-162.895-45.725-255.729-45.725z" />
<glyph unicode="&#xe922;" glyph-name="Cs_min7" horiz-adv-x="2030" d="M1867.246 574.871h-45.881c39.472 110.985 88.067 222.548 142.49 322.362-14.952-1.112-138.219-1.112-186.235-1.112v38.982h232.16v-34.666c-56.071-103.018-106.758-219.388-142.536-325.566zM1636.286-24.152v265.535c0 57.45-13.306 94.030-67.419 94.030-59.096 0-115.746-62.39-115.746-162.293v-197.316h-74.094v266.426c0 51.621-10.813 93.228-67.419 93.228-63.28 0-115.701-67.419-115.701-162.293v-197.316h-74.938v413.767h72.402c0-24.163-1.691-61.633-6.675-86.598l1.691-0.846c24.119 58.296 77.431 95.721 144.003 95.721 87.4 0 110.717-60.744 114.055-94.030 17.488 39.115 61.588 94.030 141.513 94.030 78.232 0 123.223-42.454 123.223-135.682v-286.406h-74.894zM1020.061 169.787l-43.665-18.993v-130.404l-26.091-9.889v131.776l-93.153-34.805v-133.244l-26.091-10.573v136.083l-44.448-15.566v87.475l44.448 16.888v123.356l-44.398-16.202v88.111l44.448 16.252v139.51l26.091 9.154v-139.607l93.153 33.483v143.132l26.091 8.42v-142.349l43.713 15.469v-86.006l-43.762-17.621v-123.405l43.713 15.469v-85.909zM952.41 231.123v124.089l-98.048-34.902v-123.992l98.048 34.805zM474.733-41.596c-321.829 0-440.022 207.906-440.022 464.186 0 299.043 150.946 516.874 474.155 516.874 71.201 0 145.25-11.392 212.18-27.012l-17.088-142.401c-69.776 21.361-138.13 32.752-207.906 32.752-200.786 0-291.923-153.795-291.923-354.581 0-223.527 95.409-350.263 304.739-350.263 65.505 0 149.477 18.512 202.211 44.144l18.512-138.13c-72.581-28.481-162.338-45.569-254.855-45.569z" />
<glyph unicode="&#xe923;" glyph-name="Cs_sus4" horiz-adv-x="1941" d="M1128.975 611.821c-17.68 0-35.935 1.999-50.328 4.797l0.977 33.093c15.325-4.354 34.469-7.685 53.215-7.685 34.469 0 58.456 15.325 58.456 40.289 0 57.524-116.024 21.499-116.024 106.429 0 39.8 32.56 70.006 93.059 70.006 14.836 0 31.583-2.399 46.508-5.241l-0.933-31.138c-15.814 5.241-33.049 8.218-49.307 8.218-35.048 0-52.326-14.436-52.326-37.934 0-57.080 116.513-24.475 116.513-105.498-0.044-42.155-37.401-75.335-99.811-75.335zM1420.147 616.173c0 15.369 1.378 38.334 3.819 52.77l-0.933 0.444c-13.414-34.469-43.664-57.967-85.33-57.967-54.636 0-71.427 34.469-71.427 76.713v166.353h35.935v-154.447c0-37.401 10.084-58.9 44.597-58.9 42.688 0 72.938 42.155 72.938 98.745v114.603h35.935v-238.313h-35.537zM1551.985 611.821c-17.724 0-35.979 1.999-50.328 4.797l0.933 33.093c15.369-4.354 34.515-7.685 53.259-7.685 34.515 0 58.456 15.325 58.456 40.289 0 57.524-115.98 21.499-115.98 106.429 0 39.8 32.56 70.006 93.015 70.006 14.836 0 31.671-2.399 46.508-5.241l-0.977-31.138c-15.814 5.241-33.049 8.218-49.395 8.218-34.958 0-52.237-14.436-52.237-37.934 0-57.080 116.469-24.475 116.469-105.498 0-42.155-37.401-75.335-99.722-75.335zM1866.699 694.841v-78.668h-35.446v78.668h-147.696l-2.844 28.339 137.612 216.724h48.418v-212.505h55.169v-32.56h-55.214zM1831.741 903.88h-0.489l-113.671-177.901c31.227 1.422 93.504 1.422 114.158 1.422v176.479zM1018.21 170.292l-43.586-18.959v-130.168l-26.044-9.871v131.537l-92.984-34.741v-133.003l-26.044-10.554v135.836l-44.367-15.538v87.316l44.367 16.857v123.132l-44.318-16.173v87.951l44.367 16.222v139.257l26.044 9.137v-139.354l92.984 33.422v142.872l26.044 8.405v-142.090l43.633 15.441v-85.85l-43.683-17.59v-123.181l43.633 15.441v-85.753zM950.682 231.516v123.864l-97.87-34.838v-123.767l97.87 34.741zM473.872-40.708c-321.245 0-439.224 207.529-439.224 463.343 0 298.501 150.672 515.937 473.294 515.937 71.072 0 144.987-11.371 211.794-26.963l-17.057-142.143c-69.65 21.322-137.879 32.693-207.529 32.693-200.422 0-291.393-153.516-291.393-353.938 0-223.121 95.235-349.628 304.186-349.628 65.386 0 149.206 18.478 201.844 44.064l18.478-137.879c-72.449-28.429-162.043-45.486-254.392-45.486z" />
<glyph unicode="&#xe924;" glyph-name="D_7" horiz-adv-x="1073" d="M908.84 574.643h-45.798c39.401 110.785 87.908 222.146 142.233 321.781-14.925-1.11-137.969-1.11-185.899-1.11v38.912h231.741v-34.604c-55.97-102.833-106.565-218.993-142.279-324.979zM254.439-35.027c-98.080 0-179.103 4.264-254.439 5.686v957.968c75.292 1.422 186.165 5.686 297.084 5.686 302.725 0 488.934-137.881 488.934-470.456 0-329.731-218.904-498.885-531.579-498.885zM285.711 806.384c-46.952 0-96.658-1.422-130.773-4.264v-697.887c31.272-4.264 78.18-7.107 115.137-7.107 206.11 0 351.053 109.451 351.053 355.363 0 227.432-100.924 353.897-335.419 353.897z" />
<glyph unicode="&#xe925;" glyph-name="D_maj" horiz-adv-x="806" d="M256.876-36.13c-98.304 0-179.512 4.273-255.020 5.699v960.155c75.464 1.425 186.59 5.699 297.762 5.699 303.416 0 490.051-138.196 490.051-471.53 0-330.484-219.404-500.024-532.792-500.024zM288.218 807.202c-47.060 0-96.879-1.425-131.072-4.273v-699.481c31.343-4.273 78.358-7.124 115.4-7.124 206.58 0 351.855 109.701 351.855 356.175 0 227.951-101.154 354.705-336.184 354.705z" />
<glyph unicode="&#xe926;" glyph-name="D_maj7" horiz-adv-x="1785" d="M1138.702 606.661v153.692c0 35.883-8.605 59.347-43.159 59.347-36.283 0-71.28-37.791-71.28-99.534v-113.507h-35.439v154.225c0 32.513-6.653 58.815-43.115 58.815-39.211 0-71.324-41.163-71.324-99.534v-113.507h-35.839v237.97h35.395c0-15.347-0.932-37.879-3.814-52.694l0.932-0.532c13.395 34.997 44.577 58.018 83.832 58.018 54.114 0 65.603-38.811 66.533-56.998 8.605 22.488 34.465 56.998 82.812 56.998 44.533 0 70.393-23.908 70.393-77.578v-165.181h-35.927zM1365.627 606.661c0 18.186 0 36.371 2.396 50.3h-0.976c-11.443-30.206-42.094-54.602-82.768-54.602-37.835 0-65.115 20.093-65.115 57.974 0 49.812 51.674 84.231 144.555 84.231v19.605c0 35.973-12.907 56.022-54.114 56.022-22.976 0-51.718-7.141-72.788-20.581l-3.372 31.626c22.488 10.069 50.3 17.654 82.324 17.654 65.603 0 84.276-32.513 84.276-77.534v-93.325c0-23.464 0-50.3 0.932-71.324h-35.351zM1363.675 718.26c-89.555 0-108.672-28.298-108.672-51.276 0-21.468 15.347-35.395 38.811-35.395 42.094 0 69.86 41.607 69.86 82.768v3.904zM1419.696 484.062c-10.069 0-22.976 1.464-32.025 4.348l3.327 31.581c9.049-3.327 20.093-5.722 30.606-5.722 32.069 0 40.719 13.395 40.719 59.835v270.57h35.883v-268.176c0.044-63.207-18.584-92.437-78.51-92.437zM1480.066 887.699c-13.395 0-24.396 10.513-24.396 24.44 0 13.395 11.001 24.44 24.396 24.44 13.883 0 24.884-11.045 24.884-24.44-0.044-13.927-11.001-24.44-24.884-24.44zM1617.258 606.661h-41.163c35.395 99.534 78.998 199.601 127.79 289.2-13.351-0.932-123.974-0.932-167.043-0.932v34.907h208.25v-31.138c-50.21-92.437-95.72-196.719-127.834-292.040zM254.070-34.326c-97.938 0-178.843 4.258-254.070 5.677v956.577c75.182 1.42 185.895 5.677 296.652 5.677 302.286 0 488.224-137.681 488.224-469.773 0-329.252-218.586-498.161-530.807-498.161zM285.296 805.864c-46.884 0-96.518-1.42-130.584-4.258v-696.874c31.226-4.258 78.066-7.097 114.97-7.097 205.81 0 350.544 109.292 350.544 354.847 0 227.101-100.777 353.383-334.931 353.383z" />
<glyph unicode="&#xe927;" glyph-name="D_min" horiz-adv-x="1518" d="M1391.514-24.145v265.532c0 57.449-13.305 94.029-67.418 94.029-59.095 0-115.744-62.389-115.744-162.291v-197.314h-74.093v266.422c0 51.62-10.813 93.227-67.418 93.227-63.28 0-115.7-67.418-115.7-162.291v-197.314h-74.937v413.762h72.401c0-24.163-1.69-61.632-6.675-86.597l1.69-0.846c24.119 58.295 77.429 95.719 144.001 95.719 87.398 0 110.715-60.743 114.054-94.029 17.488 39.115 61.587 94.029 141.511 94.029 78.231 0 123.221-42.453 123.221-135.68v-286.402h-74.893zM254.896-35.893c-98.256 0-179.425 4.271-254.896 5.696v959.686c75.427 1.424 186.499 5.696 297.617 5.696 303.268 0 489.811-138.128 489.811-471.299 0-330.323-219.297-499.78-532.532-499.78zM286.223 807.027c-47.037 0-96.832-1.424-131.008-4.271v-699.139c31.328-4.271 78.32-7.12 115.343-7.12 206.479 0 351.683 109.647 351.683 356 0 227.84-101.105 354.532-336.020 354.532z" />
<glyph unicode="&#xe928;" glyph-name="D_min7" horiz-adv-x="1785" d="M1617.012 574.443h-45.726c39.339 110.61 87.769 221.796 142.009 321.274-14.901-1.108-137.752-1.108-185.606-1.108v38.851h231.376v-34.549c-55.882-102.67-106.397-218.648-142.055-324.467zM1386.834-22.557v264.639c0 57.256-13.261 93.713-67.191 93.713-58.896 0-115.355-62.179-115.355-161.745v-196.65h-73.844v265.526c0 51.447-10.777 92.914-67.191 92.914-63.067 0-115.311-67.191-115.311-161.745v-196.65h-74.685v412.37h72.157c0-24.082-1.685-61.424-6.652-86.305l1.685-0.843c24.038 58.099 77.169 95.397 143.517 95.397 87.104 0 110.343-60.539 113.67-93.713 17.429 38.983 61.38 93.713 141.035 93.713 77.968 0 122.806-42.31 122.806-135.224v-285.439h-74.641zM254.038-34.266c-97.925 0-178.821 4.257-254.038 5.677v956.458c75.173 1.42 185.871 5.677 296.616 5.677 302.248 0 488.164-137.664 488.164-469.714 0-329.212-218.559-498.099-530.741-498.099zM285.261 805.819c-46.878 0-96.506-1.42-130.567-4.257v-696.787c31.222-4.257 78.056-7.096 114.955-7.096 205.785 0 350.5 109.279 350.5 354.803 0 227.073-100.765 353.339-334.89 353.339z" />
<glyph unicode="&#xe929;" glyph-name="D_sus4" horiz-adv-x="1696" d="M890.2 612.846c-17.79 0-36.16 2.012-50.643 4.827l0.983 33.3c15.421-4.381 34.685-7.733 53.548-7.733 34.685 0 58.821 15.421 58.821 40.541 0 57.884-116.75 21.634-116.75 107.095 0 40.049 32.764 70.444 93.641 70.444 14.929 0 31.78-2.414 46.798-5.274l-0.939-31.333c-15.912 5.274-33.256 8.269-49.615 8.269-35.267 0-52.653-14.526-52.653-38.171 0-57.437 117.242-24.629 117.242-106.158-0.045-42.419-37.635-75.806-100.435-75.806zM1183.193 617.225c0 15.465 1.386 38.574 3.843 53.1l-0.939 0.447c-13.498-34.685-43.937-58.33-85.864-58.33-54.978 0-71.874 34.685-71.874 77.193v167.394h36.16v-155.413c0-37.635 10.147-59.269 44.876-59.269 42.955 0 73.394 42.419 73.394 99.362v115.319h36.16v-239.804h-35.759zM1315.856 612.846c-17.835 0-36.204 2.012-50.643 4.827l0.939 33.3c15.465-4.381 34.731-7.733 53.592-7.733 34.731 0 58.821 15.421 58.821 40.541 0 57.884-116.706 21.634-116.706 107.095 0 40.049 32.764 70.444 93.597 70.444 14.929 0 31.869-2.414 46.798-5.274l-0.983-31.333c-15.912 5.274-33.256 8.269-49.704 8.269-35.176 0-52.564-14.526-52.564-38.171 0-57.437 117.197-24.629 117.197-106.158 0-42.419-37.635-75.806-100.346-75.806zM1632.539 696.385v-79.16h-35.668v79.16h-148.62l-2.861 28.516 138.473 218.080h48.721v-213.834h55.515v-32.764h-55.559zM1597.363 906.732h-0.492l-114.382-179.014c31.422 1.431 94.089 1.431 114.872 1.431v177.583zM256.028-38.044c-98.693 0-180.222 4.29-256.028 5.721v963.95c75.762 1.431 187.327 5.721 298.939 5.721 304.616 0 491.987-138.742 491.987-473.394 0-331.79-220.271-502.001-534.898-502.001zM287.495 808.622c-47.246 0-97.262-1.431-131.59-4.29v-702.245c31.467-4.29 78.668-7.152 115.856-7.152 207.397 0 353.246 110.135 353.246 357.582 0 228.852-101.554 356.107-337.513 356.107z" />
<glyph unicode="&#xe92a;" glyph-name="E_7" horiz-adv-x="839" d="M678.749 574.932h-45.903c39.491 111.037 88.108 222.653 142.558 322.516-14.959-1.113-138.284-1.113-186.324-1.113v39.001h232.271v-34.683c-56.098-103.067-106.808-219.493-142.604-325.721zM1.44-32.835v961.625h507.148v-129.647h-351.855v-273.541h334.804v-126.799h-334.804v-299.185h351.855v-132.453h-507.148z" />
<glyph unicode="&#xe92b;" glyph-name="E_maj" horiz-adv-x="572" d="M-4.014-32.835v961.625h507.148v-129.647h-351.855v-273.541h334.804v-126.799h-334.804v-299.185h351.855v-132.453h-507.148z" />
<glyph unicode="&#xe92c;" glyph-name="E_maj7" horiz-adv-x="1552" d="M908.566 607.116v154.133c0 35.986-8.63 59.518-43.283 59.518-36.387 0-71.485-37.899-71.485-99.82v-113.833h-35.541v154.667c0 32.607-6.672 58.984-43.238 58.984-39.323 0-71.529-41.281-71.529-99.82v-113.833h-35.942v238.652h35.497c0-15.391-0.934-37.988-3.825-52.845l0.934-0.534c13.433 35.098 44.705 58.184 84.072 58.184 54.269 0 65.791-38.923 66.724-57.161 8.63 22.553 34.564 57.161 83.049 57.161 44.66 0 70.595-23.977 70.595-77.801v-165.655h-36.031zM1136.141 607.116c0 18.239 0 36.476 2.403 50.444h-0.979c-11.476-30.293-42.215-54.759-83.005-54.759-37.944 0-65.302 20.15-65.302 58.14 0 49.955 51.822 84.473 144.97 84.473v19.661c0 36.077-12.944 56.182-54.269 56.182-23.042 0-51.867-7.162-72.997-20.64l-3.381 31.716c22.553 10.098 50.444 17.705 82.56 17.705 65.791 0 84.517-32.607 84.517-77.756v-93.592c0-23.532 0-50.444 0.934-71.529h-35.452zM1134.184 719.035c-89.812 0-108.983-28.379-108.983-51.423 0-21.53 15.391-35.497 38.923-35.497 42.215 0 70.061 41.726 70.061 83.005v3.915zM1190.366 484.165c-10.098 0-23.042 1.468-32.117 4.36l3.337 31.672c9.075-3.337 20.15-5.738 30.693-5.738 32.161 0 40.836 13.433 40.836 60.007v271.346h35.986v-268.945c0.044-63.388-18.638-92.702-78.735-92.702zM1250.907 888.96c-13.433 0-24.466 10.543-24.466 24.51 0 13.433 11.033 24.51 24.466 24.51 13.923 0 24.955-11.077 24.955-24.51-0.044-13.967-11.033-24.51-24.955-24.51zM1388.493 607.116h-41.281c35.497 99.82 79.225 200.173 128.156 290.029-13.389-0.934-124.33-0.934-167.522-0.934v35.007h208.847v-31.227c-50.354-92.702-95.995-197.283-128.201-292.877zM0-32.417v960.789h506.707v-129.534h-351.549v-273.303h334.513v-126.688h-334.513v-298.925h351.549v-132.338h-506.707z" />
<glyph unicode="&#xe92d;" glyph-name="E_min" horiz-adv-x="1285" d="M1162.74-26.069v266.613c0 57.683-13.36 94.412-67.693 94.412-59.336 0-116.216-62.643-116.216-162.952v-198.117h-74.395v267.507c0 51.83-10.857 93.607-67.693 93.607-63.537 0-116.171-67.693-116.171-162.952v-198.117h-75.242v415.447h72.696c0-24.262-1.697-61.883-6.702-86.949l1.697-0.85c24.217 58.533 77.745 96.109 144.588 96.109 87.754 0 111.166-60.99 114.518-94.412 17.559 39.274 61.838 94.412 142.087 94.412 78.55 0 123.723-42.626 123.723-136.233v-287.569h-75.198zM0-34.557v965.070h508.965v-130.111h-353.116v-274.521h336.003v-127.253h-336.003v-300.257h353.116v-132.927h-508.965z" />
<glyph unicode="&#xe92e;" glyph-name="E_min7" horiz-adv-x="1551" d="M1388.249 574.803h-45.856c39.451 110.925 88.019 222.428 142.413 322.189-14.944-1.112-138.144-1.112-186.135-1.112v38.961h232.035v-34.648c-56.041-102.963-106.7-219.27-142.459-325.391zM1157.416-23.898v265.392c0 57.419-13.299 93.98-67.383 93.98-59.064 0-115.683-62.356-115.683-162.206v-197.21h-74.054v266.282c0 51.593-10.808 93.178-67.383 93.178-63.246 0-115.639-67.383-115.639-162.206v-197.21h-74.898v413.545h72.363c0-24.15-1.69-61.599-6.671-86.551l1.69-0.846c24.106 58.265 77.389 95.669 143.926 95.669 87.352 0 110.657-60.711 113.994-93.98 17.479 39.094 61.555 93.98 141.436 93.98 78.19 0 123.156-42.431 123.156-135.609v-286.252h-74.854zM0-32.347v960.65h506.634v-129.516h-351.498v-273.264h334.464v-126.67h-334.464v-298.882h351.498v-132.318h-506.634z" />
<glyph unicode="&#xe92f;" glyph-name="E_sus4" horiz-adv-x="1463" d="M650.838 611.631c-17.659 0-35.893 1.997-50.27 4.791l0.976 33.055c15.307-4.349 34.429-7.676 53.153-7.676 34.429 0 58.388 15.307 58.388 40.242 0 57.458-115.89 21.474-115.89 106.306 0 39.754 32.522 69.924 92.951 69.924 14.819 0 31.546-2.396 46.453-5.235l-0.932-31.102c-15.795 5.235-33.010 8.208-49.25 8.208-35.007 0-52.265-14.419-52.265-37.89 0-57.014 116.378-24.447 116.378-105.375-0.044-42.106-37.358-75.248-99.695-75.248zM941.672 615.978c0 15.351 1.376 38.29 3.815 52.709l-0.932 0.444c-13.399-34.429-43.613-57.9-85.231-57.9-54.573 0-71.344 34.429-71.344 76.624v166.16h35.893v-154.268c0-37.358 10.072-58.832 44.545-58.832 42.639 0 72.853 42.106 72.853 98.63v114.469h35.893v-238.036h-35.495zM1073.357 611.631c-17.703 0-35.938 1.997-50.27 4.791l0.932 33.055c15.351-4.349 34.475-7.676 53.197-7.676 34.475 0 58.388 15.307 58.388 40.242 0 57.458-115.845 21.474-115.845 106.306 0 39.754 32.522 69.924 92.907 69.924 14.819 0 31.635-2.396 46.453-5.235l-0.976-31.102c-15.795 5.235-33.010 8.208-49.338 8.208-34.917 0-52.177-14.419-52.177-37.89 0-57.014 116.334-24.447 116.334-105.375 0-42.106-37.358-75.248-99.606-75.248zM1387.706 694.554v-78.576h-35.405v78.576h-147.524l-2.84 28.306 137.452 216.472h48.362v-212.258h55.105v-32.522h-55.15zM1352.787 903.351h-0.488l-113.539-177.694c31.191 1.42 93.395 1.42 114.026 1.42v176.274zM0-31.177v958.309h505.399v-129.2h-350.642v-272.598h333.649v-126.361h-333.649v-298.154h350.642v-131.996h-505.399z" />
<glyph unicode="&#xe930;" glyph-name="Eb_7" horiz-adv-x="1133" d="M976.834 575.674h-46.171c39.722 111.687 88.624 223.956 143.392 324.402-15.046-1.119-139.093-1.119-187.414-1.119v39.229h233.629v-34.886c-56.426-103.67-107.433-220.777-143.438-327.626zM845.926 205.81c0-30.443-14.186-60.639-42.561-90.639-13.694-14.186-44.679-39.95-93.003-77.241-42.561-33.645-73.054-62.265-91.427-85.862v648.66h37.044v-350.734c27.734 24.138 60.739 36.206 98.915 36.206 26.157 0 47.34-6.552 63.595-19.656 18.275-14.236 27.437-34.482 27.437-60.739zM793.956 198.765c0 33.102-16.452 49.654-49.359 49.654-27.684 0-57.24-13.646-88.571-40.985v-174.185c27.192 21.577 52.512 44.629 76.008 69.358 41.231 42.561 61.92 74.58 61.92 96.156zM0-35.647v967.25h510.115v-130.405h-353.913v-275.141h336.762v-127.54h-336.762v-300.936h353.913v-133.228h-510.115z" />
<glyph unicode="&#xe931;" glyph-name="Eb_maj" horiz-adv-x="866" d="M838.847 207.218c0-30.266-14.104-60.286-42.313-90.112-13.614-14.104-44.419-39.718-92.462-76.791-42.313-33.449-72.629-61.903-90.895-85.362v644.888h36.828v-348.694c27.573 23.997 60.385 35.995 98.34 35.995 26.004 0 47.065-6.514 63.225-19.541 18.169-14.153 27.278-34.282 27.278-60.385zM787.18 200.214c0 32.91-16.357 49.365-49.072 49.365-27.523 0-56.907-13.566-88.055-40.747v-173.172c27.034 21.451 52.207 44.37 75.566 68.954 40.991 42.313 61.559 74.146 61.559 95.597zM-2.159-32.835v961.625h507.148v-129.647h-351.855v-273.541h334.804v-126.799h-334.804v-299.185h351.855v-132.453h-507.148z" />
<glyph unicode="&#xe932;" glyph-name="Eb_maj7" horiz-adv-x="1846" d="M1204.741 607.458v154.465c0 36.064-8.649 59.646-43.376 59.646-36.465 0-71.638-37.981-71.638-100.034v-114.078h-35.618v155c0 32.677-6.687 59.111-43.331 59.111-39.408 0-71.683-41.37-71.683-100.034v-114.078h-36.019v239.166h35.573c0-15.424-0.936-38.070-3.833-52.959l0.936-0.535c13.462 35.173 44.801 58.309 84.253 58.309 54.386 0 65.933-39.006 66.867-57.284 8.649 22.601 34.638 57.284 83.228 57.284 44.757 0 70.746-24.028 70.746-77.968v-166.012h-36.108zM1432.806 607.458c0 18.278 0 36.554 2.408 50.553h-0.981c-11.501-30.358-42.306-54.876-83.184-54.876-38.025 0-65.442 20.194-65.442 58.265 0 50.063 51.934 84.655 145.281 84.655v19.703c0 36.154-12.972 56.303-54.386 56.303-23.092 0-51.978-7.177-73.154-20.684l-3.389 31.785c22.601 10.12 50.553 17.743 82.737 17.743 65.933 0 84.699-32.677 84.699-77.924v-93.794c0-23.582 0-50.553 0.936-71.683h-35.529zM1430.844 719.619c-90.005 0-109.218-28.44-109.218-51.534 0-21.576 15.424-35.573 39.006-35.573 42.306 0 70.212 41.816 70.212 83.184v3.924zM1487.147 484.243c-10.12 0-23.092 1.471-32.186 4.37l3.344 31.74c9.095-3.344 20.194-5.75 30.759-5.75 32.231 0 40.924 13.462 40.924 60.136v271.93h36.064v-269.524c0.044-63.525-18.678-92.902-78.905-92.902zM1547.818 889.909c-13.462 0-24.519 10.566-24.519 24.563 0 13.462 11.056 24.563 24.519 24.563 13.953 0 25.009-11.101 25.009-24.563-0.044-13.997-11.056-24.563-25.009-24.563zM1685.701 607.458h-41.37c35.573 100.034 79.395 200.604 128.432 290.654-13.418-0.936-124.598-0.936-167.883-0.936v35.083h209.297v-31.294c-50.462-92.902-96.202-197.707-128.477-293.507zM842.083 206.91c0-30.305-14.122-60.363-42.368-90.227-13.632-14.122-44.476-39.768-92.58-76.89-42.368-33.492-72.722-61.982-91.012-85.472v645.714h36.875v-349.141c27.608 24.028 60.463 36.041 98.466 36.041 26.038 0 47.125-6.523 63.306-19.566 18.192-14.172 27.313-34.326 27.313-60.463zM790.349 199.897c0 32.952-16.378 49.429-49.135 49.429-27.559 0-56.98-13.584-88.168-40.799v-173.394c27.068 21.479 52.274 44.427 75.663 69.043 41.043 42.368 61.638 74.241 61.638 95.72zM0-33.45v962.856h507.797v-129.813h-352.305v-273.891h335.232v-126.961h-335.232v-299.569h352.305v-132.622h-507.797z" />
<glyph unicode="&#xe933;" glyph-name="Eb_min" horiz-adv-x="1578" d="M1460.107-26.872v267.065c0 57.781-13.382 94.572-67.807 94.572-59.436 0-116.413-62.749-116.413-163.228v-198.453h-74.521v267.961c0 51.918-10.876 93.766-67.807 93.766-63.645 0-116.368-67.807-116.368-163.228v-198.453h-75.37v416.151h72.819c0-24.303-1.7-61.988-6.713-87.097l1.7-0.851c24.258 58.632 77.877 96.272 144.833 96.272 87.903 0 111.355-61.094 114.712-94.572 17.589 39.341 61.943 94.572 142.328 94.572 78.683 0 123.932-42.698 123.932-136.464v-288.057h-75.325zM845.45 205.946c0-30.426-14.178-60.605-42.537-90.588-13.686-14.178-44.654-39.927-92.951-77.197-42.537-33.626-73.013-62.23-91.376-85.813v648.295h37.023v-350.537c27.719 24.124 60.704 36.185 98.859 36.185 26.142 0 47.313-6.549 63.559-19.645 18.265-14.228 27.422-34.463 27.422-60.704zM793.509 198.905c0 33.084-16.443 49.626-49.331 49.626-27.669 0-57.208-13.638-88.521-40.962v-174.087c27.176 21.564 52.483 44.604 75.965 69.319 41.207 42.537 61.885 74.538 61.885 96.102zM0-35.375v966.706h509.828v-130.332h-353.714v-274.986h336.573v-127.468h-336.573v-300.766h353.714v-133.153h-509.828z" />
<glyph unicode="&#xe934;" glyph-name="Eb_min7" horiz-adv-x="1845" d="M1685.452 575.079h-45.956c39.536 111.166 88.211 222.912 142.723 322.89-14.976-1.114-138.445-1.114-186.54-1.114v39.046h232.54v-34.723c-56.163-103.187-106.932-219.747-142.769-326.098zM1454.117-24.924v265.969c0 57.544-13.327 94.184-67.529 94.184-59.193 0-115.935-62.492-115.935-162.559v-197.639h-74.215v266.861c0 51.705-10.831 93.381-67.529 93.381-63.384 0-115.891-67.529-115.891-162.559v-197.639h-75.061v414.444h72.52c0-24.203-1.693-61.733-6.686-86.739l1.693-0.847c24.159 58.391 77.557 95.877 144.239 95.877 87.542 0 110.898-60.843 114.242-94.184 17.517 39.179 61.689 94.184 141.744 94.184 78.36 0 123.424-42.523 123.424-135.904v-286.875h-75.016zM841.981 206.939c0-30.301-14.12-60.356-42.362-90.216-13.63-14.12-44.471-39.764-92.569-76.88-42.362-33.488-72.713-61.974-91.001-85.461v645.635h36.871v-349.098c27.605 24.025 60.455 36.037 98.454 36.037 26.035 0 47.119-6.522 63.298-19.564 18.19-14.17 27.309-34.322 27.309-60.455zM790.253 199.927c0 32.948-16.376 49.423-49.129 49.423-27.555 0-56.973-13.582-88.158-40.794v-173.373c27.065 21.476 52.267 44.421 75.654 69.034 41.038 42.362 61.631 74.232 61.631 95.708zM0-33.392v962.74h507.736v-129.797h-352.263v-273.858h335.192v-126.945h-335.192v-299.532h352.263v-132.606h-507.736z" />
<glyph unicode="&#xe935;" glyph-name="Eb_sus4" horiz-adv-x="1757" d="M946.205 612.071c-17.707 0-35.99 2.002-50.405 4.804l0.979 33.144c15.348-4.361 34.522-7.696 53.296-7.696 34.522 0 58.545 15.348 58.545 40.35 0 57.612-116.201 21.532-116.201 106.592 0 39.861 32.61 70.112 93.201 70.112 14.859 0 31.631-2.403 46.578-5.249l-0.935-31.186c-15.838 5.249-33.099 8.23-49.382 8.23-35.101 0-52.406-14.458-52.406-37.992 0-57.167 116.691-24.513 116.691-105.659-0.044-42.219-37.458-75.45-99.963-75.45zM1237.821 616.429c0 15.393 1.38 38.393 3.825 52.851l-0.935 0.445c-13.435-34.522-43.73-58.055-85.461-58.055-54.72 0-71.536 34.522-71.536 76.83v166.606h35.99v-154.683c0-37.458 10.099-58.99 44.665-58.99 42.753 0 73.049 42.219 73.049 98.895v114.777h35.99v-238.677h-35.591zM1369.861 612.071c-17.751 0-36.034 2.002-50.405 4.804l0.935 33.144c15.393-4.361 34.568-7.696 53.34-7.696 34.568 0 58.545 15.348 58.545 40.35 0 57.612-116.157 21.532-116.157 106.592 0 39.861 32.61 70.112 93.157 70.112 14.859 0 31.72-2.403 46.578-5.249l-0.979-31.186c-15.838 5.249-33.099 8.23-49.471 8.23-35.011 0-52.317-14.458-52.317-37.992 0-57.167 116.646-24.513 116.646-105.659 0-42.219-37.458-75.45-99.874-75.45zM1685.055 695.217v-78.787h-35.5v78.787h-147.921l-2.848 28.382 137.822 217.054h48.492v-212.828h55.254v-32.61h-55.298zM1650.043 904.575h-0.489l-113.844-178.172c31.275 1.424 93.646 1.424 114.332 1.424v176.748zM840.36 207.403c0-30.243-14.093-60.24-42.281-90.043-13.604-14.093-44.385-39.687-92.391-76.732-42.281-33.423-72.573-61.855-90.826-85.297v644.393h36.8v-348.426c27.552 23.979 60.339 35.968 98.264 35.968 25.985 0 47.029-6.509 63.177-19.526 18.155-14.143 27.257-34.255 27.257-60.339zM788.732 200.404c0 32.884-16.344 49.327-49.034 49.327-27.502 0-56.863-13.556-87.988-40.715v-173.039c27.013 21.435 52.167 44.336 75.508 68.901 40.959 42.281 61.512 74.089 61.512 95.524zM0-32.465v960.886h506.758v-129.547h-351.585v-273.331h334.547v-126.701h-334.547v-298.956h351.585v-132.351h-506.758z" />
<glyph unicode="&#xe936;" glyph-name="F_7" horiz-adv-x="795" d="M629.033 574.932h-45.903c39.491 111.037 88.108 222.653 142.558 322.516-14.959-1.113-138.284-1.113-186.324-1.113v39.001h232.271v-34.683c-56.098-103.067-106.808-219.493-142.604-325.721zM151.537 800.079v-282.045h327.636v-126.799h-327.636v-421.711h-155.291v961.669h501.448v-131.072h-346.156z" />
<glyph unicode="&#xe937;" glyph-name="F_maj" horiz-adv-x="528" d="M154.616 800.079v-282.045h327.636v-126.799h-327.636v-421.711h-155.291v961.669h501.448v-131.072h-346.156z" />
<glyph unicode="&#xe938;" glyph-name="F_maj7" horiz-adv-x="1507" d="M867.903 607.819v154.815c0 36.145-8.668 59.781-43.474 59.781-36.548 0-71.801-38.067-71.801-100.261v-114.336h-35.698v155.351c0 32.751-6.702 59.245-43.429 59.245-39.497 0-71.845-41.463-71.845-100.261v-114.336h-36.101v239.707h35.654c0-15.459-0.939-38.156-3.842-53.079l0.939-0.536c13.493 35.253 44.902 58.441 84.444 58.441 54.509 0 66.082-39.095 67.019-57.414 8.668 22.652 34.717 57.414 83.416 57.414 44.858 0 70.907-24.083 70.907-78.145v-166.387h-36.19zM1096.484 607.819c0 18.319 0 36.637 2.413 50.667h-0.983c-11.527-30.426-42.402-55.001-83.372-55.001-38.111 0-65.59 20.239-65.59 58.397 0 50.176 52.051 84.847 145.61 84.847v19.748c0 36.236-13.001 56.431-54.509 56.431-23.144 0-52.096-7.193-73.32-20.731l-3.396 31.857c22.652 10.143 50.667 17.783 82.925 17.783 66.082 0 84.891-32.751 84.891-78.1v-94.006c0-23.636 0-50.667 0.939-71.845h-35.609zM1094.518 720.234c-90.209 0-109.465-28.505-109.465-51.651 0-21.625 15.459-35.654 39.095-35.654 42.402 0 70.371 41.91 70.371 83.372v3.932zM1150.949 484.325c-10.143 0-23.144 1.475-32.259 4.379l3.352 31.812c9.115-3.352 20.239-5.763 30.829-5.763 32.304 0 41.016 13.493 41.016 60.272v272.545h36.145v-270.134c0.045-63.669-18.72-93.112-79.083-93.112zM1211.757 890.91c-13.493 0-24.574 10.59-24.574 24.619 0 13.493 11.081 24.619 24.574 24.619 13.984 0 25.066-11.126 25.066-24.619-0.045-14.029-11.081-24.619-25.066-24.619zM1349.952 607.819h-41.463c35.654 100.261 79.575 201.058 128.723 291.312-13.448-0.939-124.88-0.939-168.263-0.939v35.162h209.771v-31.365c-50.577-93.112-96.419-198.155-128.768-294.172zM155.842 801.328v-283.046h328.798v-127.248h-328.798v-423.207h-155.842v965.081h503.227v-131.537h-347.384z" />
<glyph unicode="&#xe939;" glyph-name="F_min" horiz-adv-x="1240" d="M1108.879-22.176v264.424c0 57.209-13.25 93.637-67.137 93.637-58.849 0-115.261-62.129-115.261-161.614v-196.491h-73.784v265.311c0 51.405-10.768 92.838-67.137 92.838-63.016 0-115.217-67.137-115.217-161.614v-196.491h-74.625v412.036h72.099c0-24.062-1.683-61.375-6.647-86.235l1.683-0.843c24.018 58.052 77.107 95.32 143.401 95.32 87.034 0 110.254-60.49 113.578-93.637 17.415 38.952 61.331 93.637 140.921 93.637 77.905 0 122.707-42.276 122.707-135.114v-285.208h-74.581zM154.568 798.439v-280.732h326.11v-126.208h-326.11v-419.746h-154.568v957.19h499.112v-130.462h-344.544z" />
<glyph unicode="&#xe93a;" glyph-name="F_min7" horiz-adv-x="1507" d="M1349.707 575.363h-46.059c39.625 111.415 88.408 223.41 143.042 323.612-15.010-1.117-138.754-1.117-186.957-1.117v39.133h233.060v-34.801c-56.289-103.418-107.171-220.239-143.089-326.828zM1117.854-25.982v266.564c0 57.672-13.357 94.395-67.68 94.395-59.325 0-116.194-62.632-116.194-162.922v-198.081h-74.381v267.458c0 51.821-10.855 93.59-67.68 93.59-63.526 0-116.15-67.68-116.15-162.922v-198.081h-75.229v415.371h72.682c0-24.257-1.697-61.871-6.701-86.933l1.697-0.849c24.213 58.522 77.731 96.092 144.561 96.092 87.738 0 111.146-60.979 114.497-94.395 17.556 39.267 61.827 94.395 142.061 94.395 78.535 0 123.7-42.618 123.7-136.208v-287.516h-75.184zM155.819 801.275v-283.004h328.749v-127.229h-328.749v-423.144h-155.819v964.938h503.152v-131.517h-347.333z" />
<glyph unicode="&#xe93b;" glyph-name="F_sus4" horiz-adv-x="1418" d="M609.263 612.384c-17.741 0-36.059 2.006-50.502 4.813l0.981 33.207c15.378-4.369 34.588-7.711 53.398-7.711 34.588 0 58.657 15.378 58.657 40.428 0 57.722-116.423 21.573-116.423 106.795 0 39.937 32.672 70.246 93.379 70.246 14.887 0 31.691-2.407 46.667-5.259l-0.936-31.245c-15.868 5.259-33.163 8.246-49.476 8.246-35.168 0-52.506-14.486-52.506-38.065 0-57.276 116.914-24.56 116.914-105.861-0.044-42.3-37.53-75.594-100.154-75.594zM901.437 616.751c0 15.422 1.382 38.466 3.832 52.952l-0.936 0.446c-13.46-34.588-43.814-58.166-85.624-58.166-54.824 0-71.673 34.588-71.673 76.977v166.925h36.059v-154.978c0-37.53 10.118-59.103 44.75-59.103 42.835 0 73.189 42.3 73.189 99.084v114.997h36.059v-239.133h-35.659zM1033.728 612.384c-17.785 0-36.103 2.006-50.502 4.813l0.936 33.207c15.422-4.369 34.634-7.711 53.442-7.711 34.634 0 58.657 15.378 58.657 40.428 0 57.722-116.379 21.573-116.379 106.795 0 39.937 32.672 70.246 93.335 70.246 14.887 0 31.78-2.407 46.667-5.259l-0.981-31.245c-15.868 5.259-33.163 8.246-49.565 8.246-35.078 0-52.417-14.486-52.417-38.065 0-57.276 116.869-24.56 116.869-105.861 0-42.3-37.53-75.594-100.065-75.594zM1349.525 695.69v-78.938h-35.568v78.938h-148.204l-2.853 28.436 138.085 217.469h48.584v-213.235h55.359v-32.672h-55.404zM1314.445 905.448h-0.49l-114.062-178.513c31.334 1.427 93.825 1.427 114.551 1.427v177.086zM155.469 800.481v-282.368h328.010v-126.943h-328.010v-422.192h-155.469v962.768h502.020v-131.222h-346.552z" />
<glyph unicode="&#xe93c;" glyph-name="Fs_7" horiz-adv-x="1088" d="M923.408 574.49h-45.743c39.353 110.651 87.802 221.879 142.062 321.394-14.907-1.109-137.803-1.109-185.676-1.109v38.865h231.463v-34.562c-55.903-102.709-106.437-218.729-142.108-324.588zM788.639 170.623l-43.534-18.936v-130.012l-26.013-9.859v131.38l-92.874-34.7v-132.844l-26.013-10.541v135.674l-44.314-15.519v87.212l44.314 16.837v122.985l-44.265-16.154v87.846l44.314 16.203v139.091l26.013 9.126v-139.188l92.874 33.382v142.702l26.013 8.395v-141.921l43.581 15.422v-85.747l-43.631-17.569v-123.034l43.581 15.422v-85.65zM721.193 231.774v123.716l-97.753-34.797v-123.619l97.753 34.7zM154.751 798.854v-281.064h326.496v-126.357h-326.496v-420.244h-154.751v958.324h499.704v-130.616h-344.952z" />
<glyph unicode="&#xe93d;" glyph-name="Fs_maj" horiz-adv-x="822" d="M792.572 169.655l-43.686-19.002v-130.466l-26.103-9.894v131.838l-93.198-34.821v-133.308l-26.103-10.578v136.148l-44.469-15.573v87.516l44.469 16.896v123.414l-44.419-16.21v88.153l44.469 16.259v139.576l26.103 9.158v-139.674l93.198 33.498v143.2l26.103 8.424v-142.416l43.733 15.476v-86.047l-43.783-17.63v-123.464l43.733 15.476v-85.949zM724.89 231.020v124.148l-98.094-34.918v-124.051l98.094 34.821zM156.471 800.079v-282.045h327.636v-126.799h-327.636v-421.711h-155.291v961.669h501.448v-131.072h-346.156z" />
<glyph unicode="&#xe93e;" glyph-name="Fs_maj7" horiz-adv-x="1801" d="M1153.536 606.547v153.583c0 35.858-8.599 59.305-43.128 59.305-36.257 0-71.229-37.764-71.229-99.463v-113.426h-35.414v154.115c0 32.49-6.649 58.773-43.084 58.773-39.183 0-71.274-41.133-71.274-99.463v-113.426h-35.813v237.8h35.37c0-15.336-0.931-37.852-3.811-52.657l0.931-0.532c13.385 34.972 44.545 57.976 83.772 57.976 54.075 0 65.556-38.783 66.486-56.957 8.599 22.472 34.441 56.957 82.753 56.957 44.501 0 70.342-23.891 70.342-77.523v-165.063h-35.902zM1380.299 606.547c0 18.173 0 36.345 2.394 50.264h-0.975c-11.435-30.184-42.064-54.563-82.708-54.563-37.808 0-65.068 20.078-65.068 57.932 0 49.777 51.637 84.171 144.452 84.171v19.591c0 35.948-12.898 55.982-54.075 55.982-22.96 0-51.681-7.136-72.736-20.566l-3.369 31.603c22.472 10.062 50.264 17.642 82.265 17.642 65.556 0 84.216-32.49 84.216-77.479v-93.258c0-23.447 0-50.264 0.931-71.274h-35.326zM1378.348 718.067c-89.491 0-108.594-28.278-108.594-51.24 0-21.453 15.336-35.37 38.783-35.37 42.064 0 69.811 41.577 69.811 82.708v3.901zM1434.33 484.036c-10.062 0-22.96 1.463-32.002 4.345l3.325 31.559c9.043-3.325 20.078-5.717 30.584-5.717 32.047 0 40.69 13.385 40.69 59.793v270.377h35.858v-267.984c0.044-63.162-18.571-92.371-78.454-92.371zM1494.655 887.385c-13.385 0-24.379 10.505-24.379 24.423 0 13.385 10.993 24.423 24.379 24.423 13.873 0 24.866-11.037 24.866-24.423-0.044-13.917-10.993-24.423-24.866-24.423zM1631.749 606.547h-41.133c35.37 99.463 78.942 199.458 127.699 288.994-13.341-0.931-123.886-0.931-166.924-0.931v34.882h208.102v-31.115c-50.174-92.371-95.652-196.578-127.743-291.831zM787.88 170.89l-43.492-18.918v-129.887l-25.988-9.85v131.253l-92.784-34.667v-132.716l-25.988-10.531v135.543l-44.272-15.504v87.128l44.272 16.821v122.867l-44.222-16.138v87.762l44.272 16.187v138.957l25.988 9.117v-139.054l92.784 33.35v142.564l25.988 8.387v-141.784l43.539 15.407v-85.665l-43.589-17.552v-122.916l43.539 15.407v-85.568zM720.499 231.982v123.597l-97.659-34.763v-123.5l97.659 34.667zM154.602 798.516v-280.794h326.182v-126.236h-326.182v-419.839h-154.602v957.402h499.222v-130.49h-344.62z" />
<glyph unicode="&#xe93f;" glyph-name="Fs_min" horiz-adv-x="1534" d="M1405.993-23.733v265.3c0 57.399-13.294 93.947-67.359 93.947-59.044 0-115.643-62.335-115.643-162.149v-197.141h-74.028v266.189c0 51.575-10.804 93.146-67.359 93.146-63.224 0-115.599-67.359-115.599-162.149v-197.141h-74.872v413.4h72.337c0-24.142-1.689-61.578-6.669-86.521l1.689-0.845c24.098 58.244 77.362 95.636 143.875 95.636 87.322 0 110.619-60.69 113.954-93.947 17.473 39.081 61.534 93.947 141.387 93.947 78.163 0 123.113-42.416 123.113-135.562v-286.152h-74.827zM790.314 170.034l-43.626-18.976v-130.288l-26.068-9.88v131.659l-93.071-34.774v-133.126l-26.068-10.564v135.962l-44.408-15.552v87.397l44.408 16.873v123.246l-44.359-16.188v88.033l44.408 16.237v139.386l26.068 9.145v-139.483l93.071 33.453v143.005l26.068 8.413v-142.222l43.674 15.455v-85.93l-43.723-17.606v-123.295l43.674 15.455v-85.832zM722.724 231.315v123.979l-97.96-34.871v-123.882l97.96 34.774zM155.080 799.599v-281.661h327.189v-126.626h-327.189v-421.136h-155.080v960.359h500.765v-130.893h-345.685z" />
<glyph unicode="&#xe940;" glyph-name="Fs_min7" horiz-adv-x="1801" d="M1631.503 574.353h-45.693c39.31 110.531 87.706 221.638 141.908 321.045-14.891-1.108-137.654-1.108-185.474-1.108v38.823h231.211v-34.525c-55.842-102.597-106.321-218.492-141.953-324.235zM1401.489-22.222v264.45c0 57.215-13.251 93.646-67.143 93.646-58.854 0-115.273-62.135-115.273-161.63v-196.51h-73.791v265.336c0 51.41-10.769 92.847-67.143 92.847-63.022 0-115.228-67.143-115.228-161.63v-196.51h-74.632v412.076h72.106c0-24.065-1.684-61.381-6.648-86.244l1.684-0.843c24.020 58.058 77.114 95.329 143.415 95.329 87.042 0 110.264-60.495 113.589-93.646 17.417 38.955 61.336 93.646 140.934 93.646 77.912 0 122.719-42.28 122.719-135.127v-285.236h-74.588zM787.782 170.924l-43.486-18.915v-129.871l-25.984-9.848v131.237l-92.773-34.662v-132.7l-25.984-10.53v135.527l-44.266-15.502v87.117l44.266 16.819v122.851l-44.217-16.136v87.751l44.266 16.185v138.94l25.984 9.116v-139.037l92.773 33.346v142.546l25.984 8.386v-141.767l43.534 15.405v-85.654l-43.583-17.549v-122.901l43.534 15.405v-85.557zM720.409 232.009v123.582l-97.647-34.759v-123.485l97.647 34.662zM154.583 798.473v-280.759h326.141v-126.22h-326.141v-419.787h-154.583v957.283h499.16v-130.474h-344.577z" />
<glyph unicode="&#xe941;" glyph-name="Fs_sus4" horiz-adv-x="1712" d="M905.229 612.709c-17.776 0-36.13 2.010-50.601 4.823l0.983 33.273c15.408-4.378 34.656-7.726 53.503-7.726 34.656 0 58.773 15.408 58.773 40.508 0 57.836-116.654 21.616-116.654 107.007 0 40.016 32.737 70.385 93.564 70.385 14.917 0 31.754-2.412 46.76-5.27l-0.938-31.307c-15.899 5.27-33.228 8.262-49.574 8.262-35.238 0-52.61-14.514-52.61-38.14 0-57.389 117.145-24.608 117.145-106.070-0.045-42.384-37.604-75.744-100.352-75.744zM1197.98 617.085c0 15.452 1.385 38.542 3.84 53.056l-0.938 0.447c-13.487-34.656-43.901-58.281-85.793-58.281-54.933 0-71.815 34.656-71.815 77.129v167.255h36.13v-155.285c0-37.604 10.138-59.22 44.839-59.22 42.92 0 73.333 42.384 73.333 99.28v115.224h36.13v-239.606h-35.729zM1330.533 612.709c-17.82 0-36.174 2.010-50.601 4.823l0.938 33.273c15.452-4.378 34.702-7.726 53.548-7.726 34.702 0 58.773 15.408 58.773 40.508 0 57.836-116.609 21.616-116.609 107.007 0 40.016 32.737 70.385 93.519 70.385 14.917 0 31.843-2.412 46.76-5.27l-0.983-31.307c-15.899 5.27-33.228 8.262-49.663 8.262-35.147 0-52.521-14.514-52.521-38.14 0-57.389 117.1-24.608 117.1-106.070 0-42.384-37.604-75.744-100.263-75.744zM1646.955 696.179v-79.094h-35.639v79.094h-148.497l-2.859 28.493 138.358 217.899h48.681v-213.657h55.469v-32.737h-55.513zM1611.806 906.352h-0.491l-114.288-178.866c31.396 1.43 94.011 1.43 114.777 1.43v177.436zM793.862 168.786l-43.822-19.061v-130.873l-26.185-9.924v132.25l-93.489-34.93v-133.724l-26.185-10.611v136.573l-44.608-15.622v87.789l44.608 16.949v123.799l-44.558-16.261v88.428l44.608 16.31v140.012l26.185 9.187v-140.11l93.489 33.603v143.647l26.185 8.45v-142.861l43.87 15.524v-86.315l-43.92-17.685v-123.849l43.87 15.524v-86.218zM725.97 230.342v124.536l-98.4-35.027v-124.438l98.4 34.93zM155.776 801.178v-282.926h328.659v-127.194h-328.659v-423.027h-155.776v964.671h503.013v-131.481h-347.237z" />
<glyph unicode="&#xe942;" glyph-name="G_7" horiz-adv-x="1127" d="M966.301 575.037h-45.941c39.523 111.13 88.182 222.838 142.676 322.783-14.971-1.114-138.399-1.114-186.478-1.114v39.033h232.463v-34.712c-56.145-103.153-106.897-219.675-142.722-325.991zM772.782 759.020c-79.849 31.369-168.253 49.905-256.658 49.905-193.919 0-349.341-125.433-349.341-363.554 0-222.437 126.904-352.147 333.611-352.147 55.61 0 104.089 8.511 148.291 22.815v349.296h155.376v-451.959c-95.533-37.072-212.457-58.461-322.204-58.461-298.009 0-481.857 178.235-481.857 474.774 0 298.009 199.578 514.743 528.956 514.743 92.638 0 183.894-14.259 268.065-41.395l-24.239-144.014z" />
<glyph unicode="&#xe943;" glyph-name="G_maj" horiz-adv-x="860" d="M775.688 758.762c-79.783 31.343-168.113 49.864-256.445 49.864-193.758 0-349.051-125.329-349.051-363.252 0-222.252 126.799-351.855 333.334-351.855 55.564 0 104.003 8.504 148.168 22.796v349.007h155.247v-451.584c-95.454-37.041-212.28-58.412-321.937-58.412-297.762 0-481.457 178.087-481.457 474.38 0 297.762 199.412 514.316 528.517 514.316 92.561 0 183.741-14.247 267.843-41.361l-24.219-143.894z" />
<glyph unicode="&#xe944;" glyph-name="G_maj7" horiz-adv-x="1840" d="M1195.406 606.97v153.992c0 35.953-8.622 59.463-43.243 59.463-36.353 0-71.419-37.865-71.419-99.728v-113.728h-35.508v154.525c0 32.577-6.666 58.93-43.199 58.93-39.287 0-71.463-41.243-71.463-99.728v-113.728h-35.909v238.433h35.464c0-15.377-0.934-37.953-3.821-52.797l0.934-0.533c13.421 35.066 44.664 58.131 83.995 58.131 54.219 0 65.731-38.887 66.663-57.109 8.622 22.532 34.532 57.109 82.973 57.109 44.619 0 70.53-23.955 70.53-77.729v-165.503h-35.997zM1422.772 606.97c0 18.222 0 36.442 2.4 50.398h-0.978c-11.465-30.265-42.176-54.708-82.929-54.708-37.909 0-65.242 20.132-65.242 58.087 0 49.909 51.775 84.395 144.836 84.395v19.643c0 36.043-12.932 56.131-54.219 56.131-23.021 0-51.819-7.155-72.93-20.621l-3.378 31.687c22.532 10.089 50.398 17.689 82.484 17.689 65.731 0 84.44-32.577 84.44-77.685v-93.506c0-23.51 0-50.398 0.934-71.463h-35.42zM1420.816 718.786c-89.729 0-108.883-28.353-108.883-51.376 0-21.51 15.377-35.464 38.887-35.464 42.176 0 69.997 41.688 69.997 82.929v3.912zM1476.947 484.132c-10.089 0-23.021 1.467-32.088 4.356l3.334 31.643c9.067-3.334 20.132-5.733 30.665-5.733 32.132 0 40.798 13.421 40.798 59.952v271.097h35.953v-268.698c0.044-63.33-18.621-92.617-78.663-92.617zM1537.432 888.555c-13.421 0-24.443 10.533-24.443 24.488 0 13.421 11.022 24.488 24.443 24.488 13.91 0 24.932-11.067 24.932-24.488-0.044-13.954-11.022-24.488-24.932-24.488zM1674.892 606.97h-41.243c35.464 99.728 79.152 199.989 128.039 289.763-13.377-0.934-124.216-0.934-167.368-0.934v34.975h208.656v-31.198c-50.308-92.617-95.907-197.102-128.083-292.608zM770.761 758.206c-79.641 31.287-167.813 49.775-255.987 49.775-193.412 0-348.427-125.105-348.427-362.603 0-221.855 126.572-351.226 332.739-351.226 55.465 0 103.817 8.489 147.903 22.755v348.383h154.97v-450.777c-95.283-36.975-211.901-58.308-321.362-58.308-297.23 0-480.597 177.769-480.597 473.532 0 297.23 199.056 513.397 527.573 513.397 92.396 0 183.413-14.222 267.364-41.287l-24.176-143.637z" />
<glyph unicode="&#xe945;" glyph-name="G_min" horiz-adv-x="1573" d="M1449.213-25.171v266.108c0 57.574-13.334 94.233-67.564 94.233-59.224 0-115.996-62.525-115.996-162.644v-197.742h-74.254v267.001c0 51.732-10.837 93.43-67.564 93.43-63.417 0-115.951-67.564-115.951-162.644v-197.742h-75.1v414.66h72.558c0-24.216-1.694-61.766-6.689-86.785l1.694-0.848c24.171 58.422 77.598 95.927 144.314 95.927 87.588 0 110.956-60.875 114.301-94.233 17.526 39.2 61.721 94.233 141.818 94.233 78.401 0 123.489-42.545 123.489-135.975v-287.025h-75.056zM773.44 759.285c-79.917 31.396-168.396 49.948-256.877 49.948-194.084 0-349.638-125.54-349.638-363.863 0-222.626 127.012-352.447 333.895-352.447 55.657 0 104.178 8.519 148.417 22.834v349.594h155.508v-452.344c-95.614-37.104-212.638-58.511-322.479-58.511-298.263 0-482.268 178.387-482.268 475.178 0 298.263 199.748 515.181 529.406 515.181 92.717 0 184.051-14.271 268.293-41.431l-24.26-144.136z" />
<glyph unicode="&#xe946;" glyph-name="G_min7" horiz-adv-x="1840" d="M1674.644 574.689h-45.815c39.415 110.826 87.94 222.229 142.286 321.9-14.93-1.111-138.020-1.111-185.968-1.111v38.926h231.827v-34.617c-55.991-102.871-106.604-219.074-142.332-325.099zM1444.018-23.475v265.154c0 57.367-13.287 93.895-67.322 93.895-59.011 0-115.58-62.301-115.58-162.061v-197.033h-73.988v266.044c0 51.547-10.798 93.095-67.322 93.095-63.19 0-115.535-67.322-115.535-162.061v-197.033h-74.831v413.174h72.298c0-24.129-1.688-61.544-6.665-86.474l1.688-0.845c24.085 58.212 77.319 95.583 143.797 95.583 87.274 0 110.558-60.657 113.892-93.895 17.463 39.059 61.5 93.895 141.31 93.895 78.12 0 123.046-42.393 123.046-135.488v-285.996h-74.787zM770.667 758.169c-79.631 31.283-167.793 49.769-255.956 49.769-193.388 0-348.385-125.090-348.385-362.559 0-221.828 126.557-351.183 332.698-351.183 55.458 0 103.804 8.488 147.885 22.752v348.34h154.951v-450.722c-95.272-36.971-211.875-58.301-321.323-58.301-297.194 0-480.539 177.747-480.539 473.475 0 297.194 199.032 513.334 527.509 513.334 92.384 0 183.391-14.22 267.331-41.282l-24.173-143.62z" />
<glyph unicode="&#xe947;" glyph-name="G_sus4" horiz-adv-x="1751" d="M937.527 611.542c-17.65 0-35.874 1.996-50.243 4.789l0.976 33.037c15.299-4.347 34.41-7.671 53.124-7.671 34.41 0 58.356 15.299 58.356 40.221 0 57.427-115.827 21.463-115.827 106.248 0 39.733 32.505 69.887 92.901 69.887 14.811 0 31.529-2.395 46.428-5.232l-0.932-31.085c-15.787 5.232-32.993 8.204-49.223 8.204-34.988 0-52.237-14.411-52.237-37.87 0-56.983 116.315-24.434 116.315-105.319-0.044-42.084-37.338-75.207-99.641-75.207zM1228.205 615.887c0 15.343 1.375 38.269 3.813 52.681l-0.932 0.444c-13.392-34.41-43.59-57.869-85.185-57.869-54.544 0-71.306 34.41-71.306 76.582v166.070h35.874v-154.185c0-37.338 10.067-58.8 44.521-58.8 42.616 0 72.814 42.084 72.814 98.577v114.408h35.874v-237.908h-35.476zM1359.82 611.542c-17.694 0-35.918 1.996-50.243 4.789l0.932 33.037c15.343-4.347 34.456-7.671 53.168-7.671 34.456 0 58.356 15.299 58.356 40.221 0 57.427-115.783 21.463-115.783 106.248 0 39.733 32.505 69.887 92.857 69.887 14.811 0 31.618-2.395 46.428-5.232l-0.976-31.085c-15.787 5.232-32.993 8.204-49.311 8.204-34.898 0-52.149-14.411-52.149-37.87 0-56.983 116.271-24.434 116.271-105.319 0-42.084-37.338-75.207-99.553-75.207zM1674 694.421v-78.534h-35.386v78.534h-147.445l-2.839 28.291 137.378 216.356h48.336v-212.143h55.076v-32.505h-55.12zM1639.1 903.105h-0.488l-113.478-177.599c31.174 1.419 93.345 1.419 113.964 1.419v176.179zM769.064 757.524c-79.465 31.218-167.444 49.665-255.424 49.665-192.986 0-347.66-124.83-347.66-361.805 0-221.367 126.293-350.453 332.006-350.453 55.343 0 103.588 8.47 147.577 22.705v347.616h154.628v-449.785c-95.074-36.894-211.434-58.18-320.654-58.18-296.576 0-479.539 177.378-479.539 472.49 0 296.576 198.618 512.267 526.411 512.267 92.192 0 183.009-14.19 266.775-41.196l-24.123-143.321z" />
<glyph unicode="&#xe948;" glyph-name="As_7" horiz-adv-x="1431" d="M1266.391 574.679h-45.811c39.412 110.817 87.933 222.211 142.274 321.874-14.929-1.111-138.009-1.111-185.953-1.111v38.923h231.809v-34.614c-55.987-102.862-106.596-219.056-142.32-325.073zM1131.422 170.208l-43.599-18.964v-130.207l-26.052-9.874v131.576l-93.012-34.752v-133.043l-26.052-10.557v135.877l-44.38-15.542v87.342l44.38 16.862v123.169l-44.331-16.178v87.977l44.38 16.227v139.299l26.052 9.14v-139.396l93.012 33.432v142.915l26.052 8.407v-142.133l43.646 15.445v-85.876l-43.696-17.595v-123.218l43.646 15.445v-85.779zM1063.873 231.451v123.901l-97.899-34.849v-123.804l97.899 34.752zM692.359-29.479l-73.893 211.858h-388.125l-73.937-211.858h-156.405l344.046 959.713h172.046l348.313-959.713h-172.046zM467.704 607.471c-18.44 49.765-31.236 95.264-42.611 147.873h-2.844c-9.952-48.344-25.593-100.953-44.077-152.14l-108.061-297.17h307.078l-109.483 301.435z" />
<glyph unicode="&#xe949;" glyph-name="As_maj" horiz-adv-x="1164" d="M1136.908 168.861l-43.81-19.056v-130.838l-26.178-9.922v132.214l-93.463-34.92v-133.688l-26.178-10.608v136.536l-44.596-15.618v87.766l44.596 16.944v123.766l-44.546-16.256v88.404l44.596 16.306v139.974l26.178 9.184v-140.072l93.463 33.594v143.608l26.178 8.448v-142.822l43.858 15.52v-86.292l-43.908-17.68v-123.816l43.858 15.52v-86.195zM1069.032 230.401v124.502l-98.374-35.018v-124.405l98.374 34.92zM695.716-31.794l-74.251 212.886h-390.007l-74.296-212.886h-157.163l345.714 964.367h172.88l350.002-964.367h-172.88zM469.972 608.244c-18.529 50.006-31.388 95.726-42.817 148.59h-2.858c-10-48.578-25.717-101.443-44.291-152.878l-108.585-298.611h308.567l-110.014 302.897z" />
<glyph unicode="&#xe94a;" glyph-name="As_maj7" horiz-adv-x="2143" d="M1496.021 606.73v153.759c0 35.899-8.609 59.373-43.178 59.373-36.299 0-71.311-37.807-71.311-99.578v-113.557h-35.455v154.292c0 32.527-6.656 58.841-43.133 58.841-39.228 0-71.356-41.181-71.356-99.578v-113.557h-35.855v238.074h35.411c0-15.354-0.932-37.896-3.815-52.717l0.932-0.532c13.401 35.013 44.596 58.043 83.868 58.043 54.138 0 65.632-38.828 66.562-57.023 8.609 22.498 34.48 57.023 82.848 57.023 44.552 0 70.423-23.918 70.423-77.612v-165.253h-35.943zM1723.043 606.73c0 18.194 0 36.387 2.397 50.322h-0.976c-11.448-30.219-42.113-54.626-82.804-54.626-37.852 0-65.143 20.101-65.143 57.999 0 49.834 51.697 84.268 144.618 84.268v19.613c0 35.989-12.913 56.046-54.138 56.046-22.986 0-51.741-7.144-72.82-20.589l-3.373 31.639c22.498 10.074 50.322 17.662 82.36 17.662 65.632 0 84.312-32.527 84.312-77.568v-93.365c0-23.474 0-50.322 0.932-71.356h-35.366zM1721.092 718.378c-89.594 0-108.719-28.311-108.719-51.299 0-21.477 15.354-35.411 38.828-35.411 42.113 0 69.891 41.625 69.891 82.804v3.906zM1777.136 484.078c-10.074 0-22.986 1.465-32.039 4.35l3.329 31.595c9.053-3.329 20.101-5.724 30.619-5.724 32.083 0 40.737 13.401 40.737 59.862v270.688h35.899v-268.293c0.044-63.235-18.592-92.477-78.544-92.477zM1837.532 887.891c-13.401 0-24.407 10.518-24.407 24.451 0 13.401 11.006 24.451 24.407 24.451 13.889 0 24.895-11.050 24.895-24.451-0.044-13.933-11.006-24.451-24.895-24.451zM1974.784 606.73h-41.181c35.411 99.578 79.032 199.688 127.846 289.326-13.357-0.932-124.029-0.932-167.116-0.932v34.923h208.341v-31.151c-50.232-92.477-95.762-196.804-127.89-292.167zM1129.943 170.571l-43.542-18.939v-130.037l-26.018-9.861v131.404l-92.891-34.706v-132.869l-26.018-10.543v135.699l-44.323-15.522v87.228l44.323 16.84v123.008l-44.273-16.157v87.863l44.323 16.206v139.117l26.018 9.128v-139.214l92.891 33.388v142.728l26.018 8.396v-141.947l43.589 15.425v-85.763l-43.639-17.572v-123.057l43.589 15.425v-85.666zM1062.483 231.734v123.739l-97.771-34.803v-123.642l97.771 34.706zM691.454-28.855l-73.797 211.581h-387.618l-73.841-211.581h-156.2l343.596 958.459h171.821l347.858-958.459h-171.821zM467.093 607.262c-18.416 49.7-31.196 95.14-42.555 147.68h-2.841c-9.939-48.281-25.56-100.821-44.020-151.941l-107.92-296.782h306.677l-109.34 301.041z" />
<glyph unicode="&#xe94b;" glyph-name="As_min" horiz-adv-x="1876" d="M1749.127-24.089v265.5c0 57.442-13.304 94.018-67.41 94.018-59.088 0-115.73-62.382-115.73-162.272v-197.29h-74.084v266.39c0 51.614-10.812 93.216-67.41 93.216-63.272 0-115.686-67.41-115.686-162.272v-197.29h-74.928v413.712h72.392c0-24.16-1.69-61.624-6.674-86.586l1.69-0.846c24.116 58.288 77.42 95.708 143.984 95.708 87.388 0 110.702-60.736 114.040-94.018 17.486 39.11 61.58 94.018 141.494 94.018 78.222 0 123.206-42.448 123.206-135.664v-286.368h-74.884zM1132.985 169.824l-43.659-18.99v-130.387l-26.088-9.888v131.758l-93.141-34.8v-133.227l-26.088-10.571v136.065l-44.442-15.564v87.463l44.442 16.886v123.339l-44.392-16.2v88.099l44.442 16.25v139.491l26.088 9.152v-139.589l93.141 33.478v143.112l26.088 8.419v-142.329l43.707 15.467v-85.994l-43.756-17.619v-123.388l43.707 15.467v-85.897zM1065.343 231.152v124.072l-98.034-34.897v-123.975l98.034 34.8zM693.315-30.138l-73.995 212.151h-388.661l-74.040-212.151h-156.621l344.521 961.039h172.284l348.794-961.039h-172.284zM468.35 607.691c-18.465 49.833-31.279 95.396-42.67 148.077h-2.848c-9.966-48.411-25.629-101.093-44.138-152.35l-108.21-297.581h307.502l-109.634 301.852z" />
<glyph unicode="&#xe94c;" glyph-name="As_min7" horiz-adv-x="2143" d="M1974.536 574.501h-45.747c39.356 110.66 87.809 221.897 142.074 321.421-14.908-1.109-137.815-1.109-185.691-1.109v38.868h231.482v-34.565c-55.908-102.717-106.446-218.747-142.12-324.615zM1744.251-22.772v264.759c0 57.282-13.267 93.755-67.222 93.755-58.923 0-115.408-62.208-115.408-161.819v-196.74h-73.877v265.647c0 51.47-10.782 92.956-67.222 92.956-63.096 0-115.363-67.222-115.363-161.819v-196.74h-74.719v412.558h72.19c0-24.093-1.686-61.453-6.656-86.345l1.686-0.844c24.049 58.126 77.204 95.441 143.583 95.441 87.144 0 110.393-60.566 113.722-93.755 17.437 39.001 61.408 93.755 141.099 93.755 78.004 0 122.862-42.33 122.862-135.286v-285.57h-74.675zM1129.826 170.6l-43.537-18.938v-130.023l-26.015-9.86v131.391l-92.881-34.703v-132.855l-26.015-10.542v135.685l-44.318-15.52v87.219l44.318 16.839v122.995l-44.269-16.155v87.853l44.318 16.204v139.102l26.015 9.127v-139.199l92.881 33.385v142.713l26.015 8.396v-141.933l43.585 15.424v-85.755l-43.634-17.57v-123.044l43.585 15.424v-85.658zM1062.373 231.756v123.727l-97.761-34.8v-123.63l97.761 34.703zM691.382-28.805l-73.789 211.56h-387.578l-73.833-211.56h-156.184l343.561 958.36h171.803l347.822-958.36h-171.803zM467.044 607.246c-18.414 49.694-31.192 95.13-42.551 147.665h-2.84c-9.938-48.276-25.557-100.811-44.015-151.925l-107.908-296.751h306.645l-109.329 301.010z" />
<glyph unicode="&#xe94d;" glyph-name="As_sus4" horiz-adv-x="2054" d="M1248.509 612.7c-17.775 0-36.128 2.010-50.599 4.822l0.983 33.271c15.407-4.377 34.654-7.726 53.5-7.726 34.654 0 58.769 15.407 58.769 40.505 0 57.833-116.647 21.614-116.647 107 0 40.014 32.735 70.381 93.559 70.381 14.916 0 31.752-2.412 46.757-5.269l-0.938-31.305c-15.898 5.269-33.226 8.262-49.571 8.262-35.236 0-52.607-14.513-52.607-38.138 0-57.386 117.138-24.607 117.138-106.064-0.045-42.381-37.602-75.739-100.346-75.739zM1541.244 617.076c0 15.452 1.385 38.54 3.84 53.053l-0.938 0.447c-13.486-34.654-43.898-58.278-85.788-58.278-54.93 0-71.811 34.654-71.811 77.124v167.246h36.128v-155.276c0-37.602 10.138-59.216 44.836-59.216 42.917 0 73.329 42.381 73.329 99.275v115.218h36.128v-239.592h-35.727zM1673.789 612.7c-17.819 0-36.172 2.010-50.599 4.822l0.938 33.271c15.452-4.377 34.7-7.726 53.545-7.726 34.7 0 58.769 15.407 58.769 40.505 0 57.833-116.602 21.614-116.602 107 0 40.014 32.735 70.381 93.514 70.381 14.916 0 31.841-2.412 46.757-5.269l-0.983-31.305c-15.898 5.269-33.226 8.262-49.66 8.262-35.145 0-52.518-14.513-52.518-38.138 0-57.386 117.094-24.607 117.094-106.064 0-42.381-37.602-75.739-100.257-75.739zM1990.192 696.165v-79.090h-35.637v79.090h-148.488l-2.859 28.491 138.35 217.887h48.678v-213.645h55.465v-32.735h-55.51zM1955.047 906.326h-0.491l-114.281-178.856c31.394 1.429 94.005 1.429 114.771 1.429v177.426zM1137.15 168.801l-43.819-19.060v-130.866l-26.183-9.924v132.242l-93.483-34.928v-133.716l-26.183-10.61v136.565l-44.605-15.621v87.784l44.605 16.948v123.792l-44.556-16.26v88.423l44.605 16.309v140.004l26.183 9.186v-140.102l93.483 33.601v143.638l26.183 8.45v-142.853l43.867 15.523v-86.31l-43.917-17.684v-123.842l43.867 15.523v-86.213zM1069.26 230.354v124.529l-98.395-35.025v-124.431l98.395 34.928zM695.864-31.896l-74.267 212.931h-390.090l-74.312-212.931h-157.197l345.788 964.572h172.917l350.076-964.572h-172.917zM470.072 608.278c-18.533 50.017-31.394 95.746-42.827 148.622h-2.859c-10.003-48.589-25.723-101.464-44.3-152.91l-108.608-298.675h308.633l-110.037 302.961z" />
</font>
</defs>
</svg>
